<?xml version="1.0" standalone="no"?>
<!DOCTYPE svg PUBLIC "-//W3C//DTD SVG 1.1//EN" "http://www.w3.org/Graphics/SVG/1.1/DTD/svg11.dtd">
<svg version="1.1" width="1200" height="331" onload="init(evt)" viewBox="0 0 1200 331" xmlns="http://www.w3.org/2000/svg" xmlns:xlink="http://www.w3.org/1999/xlink">
<!-- Flame graph stack visualization. See https://github.com/brendangregg/FlameGraph for latest version, and http://www.brendangregg.com/flamegraphs.html for examples. -->
<!-- NOTES:  -->
<defs>
	</defs>
<style type="text/css">
	text { font-family:Verdana; font-size:13px; fill:rgb(0,0,0); }
	#subtitle { text-anchor:middle; font-color:rgb(160,160,160); }
	#title { text-anchor:middle; font-size:18px}
	#unzoom { cursor:pointer; }
	#frames > *:hover { stroke:black; stroke-width:0.5; cursor:pointer; }
	.hide { display:none; }
	.parent { opacity:0.5; }
</style>
<rect x="0.0" y="0" width="1200.0" height="331.0" fill="white"  />
<g id="frames">
<g >
<title>std::__insertion_sort (34 samples, 0.73%)</title><rect x="970.7" y="136" width="8.6" height="31.0" fill="rgb(238,146,36)" rx="2" ry="2" />
<text  x="973.69" y="154.5" ></text>
</g>
<g >
<title>ActsExamples::GridTripletSeedingAlgorithm::execute (4,559 samples, 97.73%)</title><rect x="21.9" y="232" width="1153.2" height="31.0" fill="rgb(240,164,38)" rx="2" ry="2" />
<text  x="24.89" y="250.5" >ActsExamples::GridTripletSeedingAlgorithm::execute</text>
</g>
<g >
<title>__memmove_avx_unaligned (18 samples, 0.39%)</title><rect x="964.6" y="104" width="4.6" height="31.0" fill="rgb(251,151,51)" rx="2" ry="2" />
<text  x="967.62" y="122.5" ></text>
</g>
<g >
<title>Acts::DoubletSeedFinder::computeMiddleSpInfo (8 samples, 0.17%)</title><rect x="361.6" y="136" width="2.0" height="31.0" fill="rgb(248,164,47)" rx="2" ry="2" />
<text  x="364.60" y="154.5" ></text>
</g>
<g >
<title>std::__do_uninit_copy (22 samples, 0.47%)</title><rect x="15.8" y="200" width="5.6" height="31.0" fill="rgb(248,146,48)" rx="2" ry="2" />
<text  x="18.82" y="218.5" ></text>
</g>
<g >
<title>std::swap (10 samples, 0.21%)</title><rect x="1036.0" y="104" width="2.5" height="31.0" fill="rgb(233,146,31)" rx="2" ry="2" />
<text  x="1038.95" y="122.5" ></text>
</g>
<g >
<title>Acts::BroadTripletSeedFilter::filterTripletsMiddleFixed (10 samples, 0.21%)</title><rect x="356.5" y="136" width="2.6" height="31.0" fill="rgb(252,164,52)" rx="2" ry="2" />
<text  x="359.54" y="154.5" ></text>
</g>
<g >
<title>Acts::DoubletsForMiddleSp::emplace_back (30 samples, 0.64%)</title><rect x="194.1" y="104" width="7.6" height="31.0" fill="rgb(242,164,40)" rx="2" ry="2" />
<text  x="197.15" y="122.5" ></text>
</g>
<g >
<title>Acts::SpacePointContainer2::createSpacePoint (40 samples, 0.86%)</title><rect x="66.2" y="200" width="10.1" height="31.0" fill="rgb(238,164,36)" rx="2" ry="2" />
<text  x="69.15" y="218.5" ></text>
</g>
<g >
<title>std::__unguarded_partition (24 samples, 0.51%)</title><rect x="1006.9" y="72" width="6.0" height="31.0" fill="rgb(247,146,46)" rx="2" ry="2" />
<text  x="1009.87" y="90.5" ></text>
</g>
<g >
<title>all (4,665 samples, 100%)</title><rect x="10.0" y="264" width="1180.0" height="31.0" fill="rgb(255,230,55)" rx="2" ry="2" />
<text  x="13.00" y="282.5" ></text>
</g>
<g >
<title>Acts::Axis::wrapBin (11 samples, 0.24%)</title><rect x="59.8" y="200" width="2.8" height="31.0" fill="rgb(244,164,43)" rx="2" ry="2" />
<text  x="62.83" y="218.5" ></text>
</g>
<g >
<title>malloc_consolidate (8 samples, 0.17%)</title><rect x="1186.7" y="136" width="2.0" height="31.0" fill="rgb(245,112,45)" rx="2" ry="2" />
<text  x="1189.71" y="154.5" ></text>
</g>
<g >
<title>std::__introsort_loop (67 samples, 1.44%)</title><rect x="996.2" y="104" width="17.0" height="31.0" fill="rgb(248,146,47)" rx="2" ry="2" />
<text  x="999.24" y="122.5" ></text>
</g>
<g >
<title>std::__introsort_loop (13 samples, 0.28%)</title><rect x="1163.7" y="200" width="3.3" height="31.0" fill="rgb(248,146,47)" rx="2" ry="2" />
<text  x="1166.69" y="218.5" ></text>
</g>
<g >
<title>Acts::TripletSeeder::createSeedsFromGroups (4,208 samples, 90.20%)</title><rect x="76.5" y="200" width="1064.4" height="31.0" fill="rgb(237,164,36)" rx="2" ry="2" />
<text  x="79.53" y="218.5" >Acts::TripletSeeder::createSeedsFromGroups</text>
</g>
<g >
<title>Acts::detail::sp::ColumnHolder::emplace_back (17 samples, 0.36%)</title><rect x="69.2" y="168" width="4.3" height="31.0" fill="rgb(242,164,40)" rx="2" ry="2" />
<text  x="72.19" y="186.5" ></text>
</g>
<g >
<title>std::vector::emplace_back (18 samples, 0.39%)</title><rect x="1129.5" y="136" width="4.6" height="31.0" fill="rgb(242,146,40)" rx="2" ry="2" />
<text  x="1132.55" y="154.5" ></text>
</g>
<g >
<title>std::span::subspan (10 samples, 0.21%)</title><rect x="333.5" y="104" width="2.5" height="31.0" fill="rgb(242,146,41)" rx="2" ry="2" />
<text  x="336.52" y="122.5" ></text>
</g>
<g >
<title>std::__new_allocator::allocate (8 samples, 0.17%)</title><rect x="1167.0" y="200" width="2.0" height="31.0" fill="rgb(245,146,45)" rx="2" ry="2" />
<text  x="1169.98" y="218.5" ></text>
</g>
<g >
<title>std::construct_at (9 samples, 0.19%)</title><rect x="1113.4" y="136" width="2.2" height="31.0" fill="rgb(226,146,24)" rx="2" ry="2" />
<text  x="1116.36" y="154.5" ></text>
</g>
<g >
<title>std::span::operator[] (12 samples, 0.26%)</title><rect x="1116.6" y="136" width="3.1" height="31.0" fill="rgb(242,146,41)" rx="2" ry="2" />
<text  x="1119.65" y="154.5" ></text>
</g>
<g >
<title>Acts::DoubletsForMiddleSp::emplace_back (20 samples, 0.43%)</title><rect x="913.8" y="104" width="5.0" height="31.0" fill="rgb(242,164,40)" rx="2" ry="2" />
<text  x="916.78" y="122.5" ></text>
</g>
<g >
<title>Acts::SpacePointProxy2::assignSourceLinks (32 samples, 0.69%)</title><rect x="13.5" y="232" width="8.1" height="31.0" fill="rgb(236,164,34)" rx="2" ry="2" />
<text  x="16.54" y="250.5" ></text>
</g>
<g >
<title>std::vector::push_back (10 samples, 0.21%)</title><rect x="920.6" y="104" width="2.5" height="31.0" fill="rgb(242,146,40)" rx="2" ry="2" />
<text  x="923.61" y="122.5" ></text>
</g>
<g >
<title>Acts::SpacePointContainer2::varianceR (22 samples, 0.47%)</title><rect x="369.2" y="136" width="5.6" height="31.0" fill="rgb(247,164,46)" rx="2" ry="2" />
<text  x="372.19" y="154.5" ></text>
</g>
<g >
<title>Acts::BroadTripletSeedFilter::filterTripletTopCandidates (116 samples, 2.49%)</title><rect x="157.0" y="104" width="29.3" height="31.0" fill="rgb(238,164,36)" rx="2" ry="2" />
<text  x="159.96" y="122.5" >A..</text>
</g>
<g >
<title>Acts::Axis::getBin (15 samples, 0.32%)</title><rect x="56.0" y="200" width="3.8" height="31.0" fill="rgb(244,164,43)" rx="2" ry="2" />
<text  x="59.04" y="218.5" ></text>
</g>
<g >
<title>std::__copy_move_backward::__copy_move_b (44 samples, 0.94%)</title><rect x="958.0" y="136" width="11.2" height="31.0" fill="rgb(229,146,27)" rx="2" ry="2" />
<text  x="961.05" y="154.5" ></text>
</g>
<g >
<title>__memcpy_avx_unaligned_erms (11 samples, 0.24%)</title><rect x="961.8" y="104" width="2.8" height="31.0" fill="rgb(231,151,28)" rx="2" ry="2" />
<text  x="964.84" y="122.5" ></text>
</g>
<g >
<title>__free (19 samples, 0.41%)</title><rect x="1184.2" y="200" width="4.8" height="31.0" fill="rgb(246,135,46)" rx="2" ry="2" />
<text  x="1187.18" y="218.5" ></text>
</g>
<g >
<title>__unguarded_linear_insert (14 samples, 0.30%)</title><rect x="1178.9" y="232" width="3.5" height="31.0" fill="rgb(236,125,34)" rx="2" ry="2" />
<text  x="1181.87" y="250.5" ></text>
</g>
<g >
<title>operator (23 samples, 0.49%)</title><rect x="979.8" y="104" width="5.8" height="31.0" fill="rgb(241,195,39)" rx="2" ry="2" />
<text  x="982.80" y="122.5" ></text>
</g>
<g >
<title>f64xsubf128 (37 samples, 0.79%)</title><rect x="1148.5" y="168" width="9.4" height="31.0" fill="rgb(237,150,35)" rx="2" ry="2" />
<text  x="1151.52" y="186.5" ></text>
</g>
<g >
<title>Acts::SpacePointContainer2::varianceR (8 samples, 0.17%)</title><rect x="201.7" y="104" width="2.1" height="31.0" fill="rgb(247,164,46)" rx="2" ry="2" />
<text  x="204.73" y="122.5" ></text>
</g>
<g >
<title>atan2f32x (44 samples, 0.94%)</title><rect x="1146.7" y="200" width="11.2" height="31.0" fill="rgb(246,140,45)" rx="2" ry="2" />
<text  x="1149.75" y="218.5" ></text>
</g>
<g >
<title>std::__sort (208 samples, 4.46%)</title><rect x="985.9" y="136" width="52.6" height="31.0" fill="rgb(238,146,36)" rx="2" ry="2" />
<text  x="988.87" y="154.5" >std:..</text>
</g>
<g >
<title>Acts::detail::grid_helper_impl::getGlobalBin (11 samples, 0.24%)</title><rect x="1140.9" y="200" width="2.8" height="31.0" fill="rgb(244,164,43)" rx="2" ry="2" />
<text  x="1143.93" y="218.5" ></text>
</g>
<g >
<title>std::span::subspan (12 samples, 0.26%)</title><rect x="1119.7" y="136" width="3.0" height="31.0" fill="rgb(242,146,41)" rx="2" ry="2" />
<text  x="1122.68" y="154.5" ></text>
</g>
<g >
<title>std::__move_median_to_first (9 samples, 0.19%)</title><rect x="1013.2" y="104" width="2.3" height="31.0" fill="rgb(234,146,32)" rx="2" ry="2" />
<text  x="1016.19" y="122.5" ></text>
</g>
<g >
<title>std::vector::emplace_back (17 samples, 0.36%)</title><rect x="339.6" y="104" width="4.3" height="31.0" fill="rgb(242,146,40)" rx="2" ry="2" />
<text  x="342.59" y="122.5" ></text>
</g>
<g >
<title>std::__introsort_loop (21 samples, 0.45%)</title><rect x="1001.0" y="72" width="5.4" height="31.0" fill="rgb(248,146,47)" rx="2" ry="2" />
<text  x="1004.05" y="90.5" ></text>
</g>
<g >
<title>std::__unguarded_partition (8 samples, 0.17%)</title><rect x="1004.3" y="40" width="2.1" height="31.0" fill="rgb(247,146,46)" rx="2" ry="2" />
<text  x="1007.34" y="58.5" ></text>
</g>
<g >
<title>std::__unguarded_partition (81 samples, 1.74%)</title><rect x="1015.5" y="104" width="20.5" height="31.0" fill="rgb(247,146,46)" rx="2" ry="2" />
<text  x="1018.47" y="122.5" ></text>
</g>
<g >
<title>Acts::(anonymous (50 samples, 1.07%)</title><rect x="144.1" y="104" width="12.6" height="31.0" fill="rgb(236,164,34)" rx="2" ry="2" />
<text  x="147.06" y="122.5" ></text>
</g>
<g >
<title>std::__unguarded_linear_insert (288 samples, 6.17%)</title><rect x="1040.5" y="136" width="72.9" height="31.0" fill="rgb(236,146,34)" rx="2" ry="2" />
<text  x="1043.51" y="154.5" >std::__..</text>
</g>
<g >
<title>Acts::(anonymous (4,179 samples, 89.58%)</title><rect x="79.1" y="168" width="1057.0" height="31.0" fill="rgb(236,164,34)" rx="2" ry="2" />
<text  x="82.05" y="186.5" >Acts::(anonymous</text>
</g>
<g >
<title>std::__detail::__extent_storage::_M_extent (15 samples, 0.32%)</title><rect x="329.5" y="104" width="3.8" height="31.0" fill="rgb(241,146,39)" rx="2" ry="2" />
<text  x="332.47" y="122.5" ></text>
</g>
<g >
<title>_int_malloc (20 samples, 0.43%)</title><rect x="980.6" y="40" width="5.0" height="31.0" fill="rgb(238,153,36)" rx="2" ry="2" />
<text  x="983.56" y="58.5" ></text>
</g>
<g >
<title>Acts::DoubletsForMiddleSp::Proxy::u (27 samples, 0.58%)</title><rect x="187.3" y="104" width="6.8" height="31.0" fill="rgb(232,164,30)" rx="2" ry="2" />
<text  x="190.32" y="122.5" ></text>
</g>
<g >
<title>std::unordered_map::find (9 samples, 0.19%)</title><rect x="336.0" y="104" width="2.3" height="31.0" fill="rgb(248,146,48)" rx="2" ry="2" />
<text  x="339.05" y="122.5" ></text>
</g>
<g >
<title>std::__unguarded_insertion_sort (8 samples, 0.17%)</title><rect x="1038.5" y="136" width="2.0" height="31.0" fill="rgb(238,146,36)" rx="2" ry="2" />
<text  x="1041.48" y="154.5" ></text>
</g>
<g >
<title>std::__new_allocator::deallocate (25 samples, 0.54%)</title><rect x="1182.7" y="232" width="6.3" height="31.0" fill="rgb(245,146,45)" rx="2" ry="2" />
<text  x="1185.66" y="250.5" ></text>
</g>
<g >
<title>createPixelTripletTopCandidates (481 samples, 10.31%)</title><rect x="207.6" y="104" width="121.6" height="31.0" fill="rgb(238,121,36)" rx="2" ry="2" />
<text  x="210.55" y="122.5" >createPixelTr..</text>
</g>
<g >
<title>_int_free (17 samples, 0.36%)</title><rect x="1184.7" y="168" width="4.3" height="31.0" fill="rgb(246,153,46)" rx="2" ry="2" />
<text  x="1187.69" y="186.5" ></text>
</g>
<g >
<title>operator() (128 samples, 2.74%)</title><rect x="923.1" y="136" width="32.4" height="31.0" fill="rgb(241,195,40)" rx="2" ry="2" />
<text  x="926.14" y="154.5" >op..</text>
</g>
<g >
<title>Acts::SpacePointContainer2::varianceZ (11 samples, 0.24%)</title><rect x="203.8" y="104" width="2.7" height="31.0" fill="rgb(250,164,50)" rx="2" ry="2" />
<text  x="206.76" y="122.5" ></text>
</g>
<g >
<title>Acts::BroadTripletSeedFilter::sufficientTopDoublets (10 samples, 0.21%)</title><rect x="359.1" y="136" width="2.5" height="31.0" fill="rgb(236,164,34)" rx="2" ry="2" />
<text  x="362.07" y="154.5" ></text>
</g>
<g >
<title>std::__detail::_Hash_node::_M_next (11 samples, 0.24%)</title><rect x="1160.9" y="200" width="2.8" height="31.0" fill="rgb(230,146,27)" rx="2" ry="2" />
<text  x="1163.91" y="218.5" ></text>
</g>
<g >
<title>std::__new_allocator::allocate (24 samples, 0.51%)</title><rect x="979.5" y="136" width="6.1" height="31.0" fill="rgb(245,146,45)" rx="2" ry="2" />
<text  x="982.55" y="154.5" ></text>
</g>
<g >
<title>Acts::AnyBase::as (12 samples, 0.26%)</title><rect x="10.0" y="232" width="3.0" height="31.0" fill="rgb(229,164,26)" rx="2" ry="2" />
<text  x="13.00" y="250.5" ></text>
</g>
<g >
<title>Acts::DoubletsForMiddleSp::sortByCotTheta (19 samples, 0.41%)</title><rect x="363.6" y="136" width="4.8" height="31.0" fill="rgb(232,164,30)" rx="2" ry="2" />
<text  x="366.62" y="154.5" ></text>
</g>
<g >
<title>Acts::CylindricalSpacePointGrid2::insert (10 samples, 0.21%)</title><rect x="63.6" y="200" width="2.6" height="31.0" fill="rgb(236,164,34)" rx="2" ry="2" />
<text  x="66.62" y="218.5" ></text>
</g>
<g >
<title>std::vector::size (12 samples, 0.26%)</title><rect x="352.7" y="104" width="3.1" height="31.0" fill="rgb(245,146,44)" rx="2" ry="2" />
<text  x="355.74" y="122.5" ></text>
</g>
<g >
<title>std::vector::operator[] (25 samples, 0.54%)</title><rect x="343.9" y="104" width="6.3" height="31.0" fill="rgb(242,146,41)" rx="2" ry="2" />
<text  x="346.89" y="122.5" ></text>
</g>
<g >
<title>std::sqrt (13 samples, 0.28%)</title><rect x="1122.7" y="136" width="3.3" height="31.0" fill="rgb(236,146,34)" rx="2" ry="2" />
<text  x="1125.72" y="154.5" ></text>
</g>
<g >
<title>createDoubletsImpl (2,143 samples, 45.94%)</title><rect x="381.1" y="136" width="542.0" height="31.0" fill="rgb(238,121,36)" rx="2" ry="2" />
<text  x="384.07" y="154.5" >createDoubletsImpl</text>
</g>
<g >
<title>Acts::(anonymous (1,054 samples, 22.59%)</title><rect x="89.2" y="136" width="266.6" height="31.0" fill="rgb(236,164,34)" rx="2" ry="2" />
<text  x="92.17" y="154.5" >Acts::(anonymous</text>
</g>
<g >
<title>Acts::DoubletsForMiddleSp::sortByCotTheta() (25 samples, 0.54%)</title><rect x="987.6" y="104" width="6.4" height="31.0" fill="rgb(244,164,43)" rx="2" ry="2" />
<text  x="990.64" y="122.5" ></text>
</g>
<g >
<title>__GI___libc_malloc (21 samples, 0.45%)</title><rect x="980.3" y="72" width="5.3" height="31.0" fill="rgb(238,119,36)" rx="2" ry="2" />
<text  x="983.31" y="90.5" ></text>
</g>
</g>
</svg>
