<?xml version="1.0" standalone="no"?>
<!DOCTYPE svg PUBLIC "-//W3C//DTD SVG 1.1//EN" "http://www.w3.org/Graphics/SVG/1.1/DTD/svg11.dtd">
<svg version="1.1" width="1600" height="404" onload="init(evt)" viewBox="0 0 1600 404" xmlns="http://www.w3.org/2000/svg" xmlns:xlink="http://www.w3.org/1999/xlink">
<!-- Flame graph stack visualization. See https://github.com/brendangregg/FlameGraph for latest version, and http://www.brendangregg.com/flamegraphs.html for examples. -->
<!-- NOTES:  -->
<defs>
	</defs>
<style type="text/css">
	text { font-family:Verdana; font-size:14px; fill:rgb(0,0,0); }
	#subtitle { text-anchor:middle; font-color:rgb(160,160,160); }
	#title { text-anchor:middle; font-size:19px}
	#unzoom { cursor:pointer; }
	#frames > *:hover { stroke:black; stroke-width:0.5; cursor:pointer; }
	.hide { display:none; }
	.parent { opacity:0.5; }
</style>
<rect x="0.0" y="0" width="1600.0" height="404.0" fill="white"  />
<text id="title" x="800.00" y="28" >Seeding3</text>
<g id="frames">
<g >
<title>std::iota (4 samples, 0.29%)</title><rect x="722.3" y="151" width="4.6" height="35.0" fill="rgb(234,146,32)" rx="2" ry="2" />
<text  x="725.28" y="171.5" ></text>
</g>
<g >
<title>std::vector::emplace_back (2 samples, 0.15%)</title><rect x="713.0" y="115" width="2.3" height="35.0" fill="rgb(242,146,40)" rx="2" ry="2" />
<text  x="716.00" y="135.5" ></text>
</g>
<g >
<title>operator (7 samples, 0.51%)</title><rect x="1224.6" y="151" width="8.1" height="35.0" fill="rgb(241,195,39)" rx="2" ry="2" />
<text  x="1227.58" y="171.5" ></text>
</g>
<g >
<title>std::__move_median_to_first (2 samples, 0.15%)</title><rect x="1280.3" y="151" width="2.3" height="35.0" fill="rgb(234,146,32)" rx="2" ry="2" />
<text  x="1283.26" y="171.5" ></text>
</g>
<g >
<title>std::__detail::_Mod_range_hashing::operator() (7 samples, 0.51%)</title><rect x="1193.3" y="187" width="8.1" height="35.0" fill="rgb(241,146,40)" rx="2" ry="2" />
<text  x="1196.26" y="207.5" ></text>
</g>
<g >
<title>std::__introsort_loop (3 samples, 0.22%)</title><rect x="410.2" y="115" width="3.5" height="35.0" fill="rgb(248,146,47)" rx="2" ry="2" />
<text  x="413.22" y="135.5" ></text>
</g>
<g >
<title>std::vector::emplace_back (11 samples, 0.81%)</title><rect x="1114.4" y="151" width="12.7" height="35.0" fill="rgb(242,146,40)" rx="2" ry="2" />
<text  x="1117.38" y="171.5" ></text>
</g>
<g >
<title>Acts::SpacePointContainer2::zip (2 samples, 0.15%)</title><rect x="822.0" y="187" width="2.4" height="35.0" fill="rgb(243,164,42)" rx="2" ry="2" />
<text  x="825.04" y="207.5" ></text>
</g>
<g >
<title>boost::container::vector::priv_raw_end (4 samples, 0.29%)</title><rect x="136.4" y="187" width="4.7" height="35.0" fill="rgb(251,151,51)" rx="2" ry="2" />
<text  x="139.45" y="207.5" ></text>
</g>
<g >
<title>std::__introsort_loop (2 samples, 0.15%)</title><rect x="1262.9" y="79" width="2.3" height="35.0" fill="rgb(248,146,47)" rx="2" ry="2" />
<text  x="1265.86" y="99.5" ></text>
</g>
<g >
<title>operator (9 samples, 0.66%)</title><rect x="1529.7" y="259" width="10.4" height="35.0" fill="rgb(241,195,39)" rx="2" ry="2" />
<text  x="1532.68" y="279.5" ></text>
</g>
<g >
<title>std::pair::operator= (8 samples, 0.59%)</title><rect x="394.0" y="79" width="9.3" height="35.0" fill="rgb(246,146,45)" rx="2" ry="2" />
<text  x="396.98" y="99.5" ></text>
</g>
<g >
<title>createPixelTripletTopCandidates (228 samples, 16.74%)</title><rect x="450.8" y="151" width="264.5" height="35.0" fill="rgb(238,121,36)" rx="2" ry="2" />
<text  x="453.82" y="171.5" >createPixelTripletTopCandidates</text>
</g>
<g >
<title>Acts::CandidatesForMiddleSp2::comparator (2 samples, 0.15%)</title><rect x="385.9" y="43" width="2.3" height="35.0" fill="rgb(241,164,39)" rx="2" ry="2" />
<text  x="388.86" y="63.5" ></text>
</g>
<g >
<title>Acts::SpacePointContainer2::createSpacePoint (14 samples, 1.03%)</title><rect x="143.4" y="259" width="16.2" height="35.0" fill="rgb(238,164,36)" rx="2" ry="2" />
<text  x="146.41" y="279.5" ></text>
</g>
<g >
<title>std::__relocate_a_1 (3 samples, 0.22%)</title><rect x="1232.7" y="187" width="3.5" height="35.0" fill="rgb(230,146,28)" rx="2" ry="2" />
<text  x="1235.70" y="207.5" ></text>
</g>
<g >
<title>std::vector::_M_erase_at_end (4 samples, 0.29%)</title><rect x="1461.2" y="187" width="4.7" height="35.0" fill="rgb(251,146,51)" rx="2" ry="2" />
<text  x="1464.23" y="207.5" ></text>
</g>
<g >
<title>std::pair::operator= (2 samples, 0.15%)</title><rect x="790.7" y="151" width="2.3" height="35.0" fill="rgb(246,146,45)" rx="2" ry="2" />
<text  x="793.72" y="171.5" ></text>
</g>
<g >
<title>__free (5 samples, 0.37%)</title><rect x="14.6" y="223" width="5.8" height="35.0" fill="rgb(246,135,46)" rx="2" ry="2" />
<text  x="17.64" y="243.5" ></text>
</g>
<g >
<title>__memcpy_avx_unaligned_erms (2 samples, 0.15%)</title><rect x="1182.8" y="151" width="2.3" height="35.0" fill="rgb(231,151,28)" rx="2" ry="2" />
<text  x="1185.82" y="171.5" ></text>
</g>
<g >
<title>Acts::BinnedGroupIterator::operator* (17 samples, 1.25%)</title><rect x="122.5" y="259" width="19.7" height="35.0" fill="rgb(245,164,44)" rx="2" ry="2" />
<text  x="125.53" y="279.5" ></text>
</g>
<g >
<title>Acts::BinnedGroup::~BinnedGroup (5 samples, 0.37%)</title><rect x="14.6" y="295" width="5.8" height="35.0" fill="rgb(241,164,40)" rx="2" ry="2" />
<text  x="17.64" y="315.5" ></text>
</g>
<g >
<title>__gnu_cxx::__normal_iterator::operator+ (2 samples, 0.15%)</title><rect x="776.8" y="151" width="2.3" height="35.0" fill="rgb(243,132,42)" rx="2" ry="2" />
<text  x="779.80" y="171.5" ></text>
</g>
<g >
<title>std::__upper_bound (2 samples, 0.15%)</title><rect x="1556.4" y="259" width="2.3" height="35.0" fill="rgb(248,146,48)" rx="2" ry="2" />
<text  x="1559.36" y="279.5" ></text>
</g>
<g >
<title>atan2f32x (24 samples, 1.76%)</title><rect x="1496.0" y="259" width="27.9" height="35.0" fill="rgb(246,140,45)" rx="2" ry="2" />
<text  x="1499.04" y="279.5" >a..</text>
</g>
<g >
<title>Acts::BroadTripletSeedFilter::filterTripletsMiddleFixed (29 samples, 2.13%)</title><rect x="760.6" y="187" width="33.6" height="35.0" fill="rgb(252,164,52)" rx="2" ry="2" />
<text  x="763.56" y="207.5" >Ac..</text>
</g>
<g >
<title>Acts::BroadTripletSeedFilter::cache (2 samples, 0.15%)</title><rect x="303.5" y="151" width="2.3" height="35.0" fill="rgb(245,164,44)" rx="2" ry="2" />
<text  x="306.49" y="171.5" ></text>
</g>
<g >
<title>std::__copy_move_backward::__copy_move_b (8 samples, 0.59%)</title><rect x="1180.5" y="187" width="9.3" height="35.0" fill="rgb(229,146,27)" rx="2" ry="2" />
<text  x="1183.50" y="207.5" ></text>
</g>
<g >
<title>std::__final_insertion_sort (2 samples, 0.15%)</title><rect x="1201.4" y="187" width="2.3" height="35.0" fill="rgb(238,146,36)" rx="2" ry="2" />
<text  x="1204.38" y="207.5" ></text>
</g>
<g >
<title>std::vector::emplace_back (3 samples, 0.22%)</title><rect x="1585.4" y="295" width="3.4" height="35.0" fill="rgb(242,146,40)" rx="2" ry="2" />
<text  x="1588.36" y="315.5" ></text>
</g>
<g >
<title>_int_free (6 samples, 0.44%)</title><rect x="1573.8" y="223" width="6.9" height="35.0" fill="rgb(246,153,46)" rx="2" ry="2" />
<text  x="1576.76" y="243.5" ></text>
</g>
<g >
<title>Acts::BinnedGroupIterator::findNotEmptyBin (2 samples, 0.15%)</title><rect x="20.4" y="295" width="2.4" height="35.0" fill="rgb(244,164,43)" rx="2" ry="2" />
<text  x="23.44" y="315.5" ></text>
</g>
<g >
<title>std::make_unique (3 samples, 0.22%)</title><rect x="1580.7" y="295" width="3.5" height="35.0" fill="rgb(242,146,40)" rx="2" ry="2" />
<text  x="1583.72" y="315.5" ></text>
</g>
<g >
<title>std::__unguarded_partition (32 samples, 2.35%)</title><rect x="1282.6" y="151" width="37.1" height="35.0" fill="rgb(247,146,46)" rx="2" ry="2" />
<text  x="1285.58" y="171.5" >st..</text>
</g>
<g >
<title>ActsExamples::SphericalGridTripletSeedingAlgorithm::execute (1,272 samples, 93.39%)</title><rect x="91.2" y="295" width="1475.6" height="35.0" fill="rgb(240,164,38)" rx="2" ry="2" />
<text  x="94.20" y="315.5" >ActsExamples::SphericalGridTripletSeedingAlgorithm::execute</text>
</g>
<g >
<title>Acts::DoubletsForMiddleSp::Proxy::u (13 samples, 0.95%)</title><rect x="416.0" y="151" width="15.1" height="35.0" fill="rgb(232,164,30)" rx="2" ry="2" />
<text  x="419.02" y="171.5" ></text>
</g>
<g >
<title>Acts::BroadTripletSeedFilter::logger (2 samples, 0.15%)</title><rect x="794.2" y="187" width="2.3" height="35.0" fill="rgb(240,164,39)" rx="2" ry="2" />
<text  x="797.20" y="207.5" ></text>
</g>
<g >
<title>__gnu_cxx::__normal_iterator::operator-- (3 samples, 0.22%)</title><rect x="442.7" y="151" width="3.5" height="35.0" fill="rgb(241,132,39)" rx="2" ry="2" />
<text  x="445.70" y="171.5" ></text>
</g>
<g >
<title>__gnu_cxx::__normal_iterator::__normal_iterator (3 samples, 0.22%)</title><rect x="1478.6" y="223" width="3.5" height="35.0" fill="rgb(241,132,39)" rx="2" ry="2" />
<text  x="1481.63" y="243.5" ></text>
</g>
<g >
<title>Acts::SeedContainer2::assignSpacePointIndices (2 samples, 0.15%)</title><rect x="808.1" y="151" width="2.3" height="35.0" fill="rgb(242,164,40)" rx="2" ry="2" />
<text  x="811.12" y="171.5" ></text>
</g>
<g >
<title>__GI___libc_malloc (2 samples, 0.15%)</title><rect x="1580.7" y="187" width="2.3" height="35.0" fill="rgb(238,119,36)" rx="2" ry="2" />
<text  x="1583.72" y="207.5" ></text>
</g>
<g >
<title>std::__unguarded_linear_insert (101 samples, 7.42%)</title><rect x="1330.1" y="187" width="117.2" height="35.0" fill="rgb(236,146,34)" rx="2" ry="2" />
<text  x="1333.15" y="207.5" >std::__ungua..</text>
</g>
<g >
<title>Acts::TripletSeeder::createSeedsFromGroups (1,141 samples, 83.77%)</title><rect x="160.8" y="259" width="1323.6" height="35.0" fill="rgb(237,164,36)" rx="2" ry="2" />
<text  x="163.81" y="279.5" >Acts::TripletSeeder::createSeedsFromGroups</text>
</g>
<g >
<title>std::__push_heap (2 samples, 0.15%)</title><rect x="787.2" y="151" width="2.4" height="35.0" fill="rgb(238,146,36)" rx="2" ry="2" />
<text  x="790.24" y="171.5" ></text>
</g>
<g >
<title>Acts::detail::ContainerRange::subrange (3 samples, 0.22%)</title><rect x="824.4" y="187" width="3.4" height="35.0" fill="rgb(247,164,46)" rx="2" ry="2" />
<text  x="827.36" y="207.5" ></text>
</g>
<g >
<title>all (1,362 samples, 100%)</title><rect x="10.0" y="331" width="1580.0" height="35.0" fill="rgb(255,230,55)" rx="2" ry="2" />
<text  x="13.00" y="351.5" ></text>
</g>
<g >
<title>std::__detail::_Hashtable_base::_M_equals (3 samples, 0.22%)</title><rect x="1189.8" y="187" width="3.5" height="35.0" fill="rgb(235,146,33)" rx="2" ry="2" />
<text  x="1192.78" y="207.5" ></text>
</g>
<g >
<title>std::__new_allocator::deallocate (2 samples, 0.15%)</title><rect x="1552.9" y="259" width="2.3" height="35.0" fill="rgb(245,146,45)" rx="2" ry="2" />
<text  x="1555.88" y="279.5" ></text>
</g>
<g >
<title>M=23 (2 samples, 0.15%)</title><rect x="1255.9" y="115" width="2.3" height="35.0" fill="rgb(245,137,45)" rx="2" ry="2" />
<text  x="1258.90" y="135.5" ></text>
</g>
<g >
<title>std::__do_uninit_copy (6 samples, 0.44%)</title><rect x="32.0" y="259" width="7.0" height="35.0" fill="rgb(248,146,48)" rx="2" ry="2" />
<text  x="35.04" y="279.5" ></text>
</g>
<g >
<title>__memmove_avx_unaligned (4 samples, 0.29%)</title><rect x="1185.1" y="151" width="4.7" height="35.0" fill="rgb(251,151,51)" rx="2" ry="2" />
<text  x="1188.14" y="171.5" ></text>
</g>
<g >
<title>std::__copy_move_backward::__copy_move_b (2 samples, 0.15%)</title><rect x="716.5" y="151" width="2.3" height="35.0" fill="rgb(229,146,27)" rx="2" ry="2" />
<text  x="719.48" y="171.5" ></text>
</g>
<g >
<title>f64xsubf128 (12 samples, 0.88%)</title><rect x="63.4" y="223" width="13.9" height="35.0" fill="rgb(237,150,35)" rx="2" ry="2" />
<text  x="66.36" y="243.5" ></text>
</g>
<g >
<title>unlink_chunk.constprop.0 (2 samples, 0.15%)</title><rect x="1578.4" y="151" width="2.3" height="35.0" fill="rgb(236,173,34)" rx="2" ry="2" />
<text  x="1581.40" y="171.5" ></text>
</g>
<g >
<title>std::__insertion_sort (16 samples, 1.17%)</title><rect x="1203.7" y="187" width="18.6" height="35.0" fill="rgb(238,146,36)" rx="2" ry="2" />
<text  x="1206.70" y="207.5" ></text>
</g>
<g >
<title>M=23 (2 samples, 0.15%)</title><rect x="388.2" y="43" width="2.3" height="35.0" fill="rgb(245,137,45)" rx="2" ry="2" />
<text  x="391.18" y="63.5" ></text>
</g>
<g >
<title>asinh (33 samples, 2.42%)</title><rect x="52.9" y="259" width="38.3" height="35.0" fill="rgb(241,119,40)" rx="2" ry="2" />
<text  x="55.92" y="279.5" >as..</text>
</g>
<g >
<title>std::vector::push_back (4 samples, 0.29%)</title><rect x="1127.1" y="151" width="4.7" height="35.0" fill="rgb(242,146,40)" rx="2" ry="2" />
<text  x="1130.14" y="171.5" ></text>
</g>
<g >
<title>f64xsubf128 (21 samples, 1.54%)</title><rect x="1499.5" y="223" width="24.4" height="35.0" fill="rgb(237,150,35)" rx="2" ry="2" />
<text  x="1502.52" y="243.5" ></text>
</g>
<g >
<title>Acts::Axis::wrapBin (5 samples, 0.37%)</title><rect x="116.7" y="259" width="5.8" height="35.0" fill="rgb(244,164,43)" rx="2" ry="2" />
<text  x="119.73" y="279.5" ></text>
</g>
<g >
<title>Acts::DoubletSeedFinder::computeMiddleSpInfo (2 samples, 0.15%)</title><rect x="798.8" y="187" width="2.4" height="35.0" fill="rgb(248,164,47)" rx="2" ry="2" />
<text  x="801.84" y="207.5" ></text>
</g>
<g >
<title>std::__copy_move::__copy_m (3 samples, 0.22%)</title><rect x="810.4" y="151" width="3.5" height="35.0" fill="rgb(230,146,28)" rx="2" ry="2" />
<text  x="813.44" y="171.5" ></text>
</g>
<g >
<title>std::__new_allocator::allocate (8 samples, 0.59%)</title><rect x="1223.4" y="187" width="9.3" height="35.0" fill="rgb(245,146,45)" rx="2" ry="2" />
<text  x="1226.42" y="207.5" ></text>
</g>
<g >
<title>boost::container::dtl::memmove_n_source (5 samples, 0.37%)</title><rect x="1523.9" y="259" width="5.8" height="35.0" fill="rgb(249,151,48)" rx="2" ry="2" />
<text  x="1526.88" y="279.5" ></text>
</g>
<g >
<title>Acts::DoubletsForMiddleSp::sortByCotTheta (6 samples, 0.44%)</title><rect x="801.2" y="187" width="6.9" height="35.0" fill="rgb(232,164,30)" rx="2" ry="2" />
<text  x="804.16" y="207.5" ></text>
</g>
<g >
<title>Acts::Axis::getBin (6 samples, 0.44%)</title><rect x="109.8" y="259" width="6.9" height="35.0" fill="rgb(244,164,43)" rx="2" ry="2" />
<text  x="112.77" y="279.5" ></text>
</g>
<g >
<title>Acts::detail::GlobalNeighborHoodIndices::iterator::operator* (3 samples, 0.22%)</title><rect x="133.0" y="187" width="3.4" height="35.0" fill="rgb(245,164,44)" rx="2" ry="2" />
<text  x="135.97" y="207.5" ></text>
</g>
<g >
<title>std::__push_heap (3 samples, 0.22%)</title><rect x="390.5" y="79" width="3.5" height="35.0" fill="rgb(238,146,36)" rx="2" ry="2" />
<text  x="393.50" y="99.5" ></text>
</g>
<g >
<title>Acts::CandidatesForMiddleSp2::comparator (4 samples, 0.29%)</title><rect x="782.6" y="115" width="4.6" height="35.0" fill="rgb(241,164,39)" rx="2" ry="2" />
<text  x="785.60" y="135.5" ></text>
</g>
<g >
<title>Acts::CandidatesForMiddleSp2::push (38 samples, 2.79%)</title><rect x="366.1" y="115" width="44.1" height="35.0" fill="rgb(236,164,34)" rx="2" ry="2" />
<text  x="369.14" y="135.5" >Act..</text>
</g>
<g >
<title>std::__introsort_loop (4 samples, 0.29%)</title><rect x="1261.7" y="115" width="4.6" height="35.0" fill="rgb(248,146,47)" rx="2" ry="2" />
<text  x="1264.70" y="135.5" ></text>
</g>
<g >
<title>Acts::(anonymous (31 samples, 2.28%)</title><rect x="267.5" y="151" width="36.0" height="35.0" fill="rgb(236,164,34)" rx="2" ry="2" />
<text  x="270.53" y="171.5" >Ac..</text>
</g>
<g >
<title>std::__new_allocator::deallocate (10 samples, 0.73%)</title><rect x="1569.1" y="295" width="11.6" height="35.0" fill="rgb(245,146,45)" rx="2" ry="2" />
<text  x="1572.12" y="315.5" ></text>
</g>
<g >
<title>Acts::Axis::wrapBin (4 samples, 0.29%)</title><rect x="123.7" y="223" width="4.6" height="35.0" fill="rgb(244,164,43)" rx="2" ry="2" />
<text  x="126.69" y="243.5" ></text>
</g>
<g >
<title>std::vector::capacity (3 samples, 0.22%)</title><rect x="730.4" y="151" width="3.5" height="35.0" fill="rgb(240,146,38)" rx="2" ry="2" />
<text  x="733.40" y="171.5" ></text>
</g>
<g >
<title>Acts::DoubletsForMiddleSp::emplace_back (14 samples, 1.03%)</title><rect x="1098.1" y="151" width="16.3" height="35.0" fill="rgb(242,164,40)" rx="2" ry="2" />
<text  x="1101.14" y="171.5" ></text>
</g>
<g >
<title>Acts::SeedProxy2::assignSpacePointIndices (6 samples, 0.44%)</title><rect x="808.1" y="187" width="7.0" height="35.0" fill="rgb(242,164,40)" rx="2" ry="2" />
<text  x="811.12" y="207.5" ></text>
</g>
<g >
<title>Acts::SpacePointContainer2::varianceR (4 samples, 0.29%)</title><rect x="816.2" y="187" width="4.7" height="35.0" fill="rgb(247,164,46)" rx="2" ry="2" />
<text  x="819.24" y="207.5" ></text>
</g>
<g >
<title>Acts::Seed::Seed (3 samples, 0.22%)</title><rect x="25.1" y="295" width="3.5" height="35.0" fill="rgb(249,164,48)" rx="2" ry="2" />
<text  x="28.08" y="315.5" ></text>
</g>
<g >
<title>__GI___libc_malloc (6 samples, 0.44%)</title><rect x="1545.9" y="187" width="7.0" height="35.0" fill="rgb(238,119,36)" rx="2" ry="2" />
<text  x="1548.92" y="207.5" ></text>
</g>
<g >
<title>__gnu_cxx::__normal_iterator::operator++ (2 samples, 0.15%)</title><rect x="1247.8" y="151" width="2.3" height="35.0" fill="rgb(234,132,32)" rx="2" ry="2" />
<text  x="1250.78" y="171.5" ></text>
</g>
<g >
<title>operator (2 samples, 0.15%)</title><rect x="1580.7" y="223" width="2.3" height="35.0" fill="rgb(241,195,39)" rx="2" ry="2" />
<text  x="1583.72" y="243.5" ></text>
</g>
<g >
<title>std::__sort (76 samples, 5.58%)</title><rect x="1236.2" y="187" width="88.1" height="35.0" fill="rgb(238,146,36)" rx="2" ry="2" />
<text  x="1239.18" y="207.5" >std::__s..</text>
</g>
<g >
<title>floorf32x (12 samples, 0.88%)</title><rect x="77.3" y="223" width="13.9" height="35.0" fill="rgb(246,158,45)" rx="2" ry="2" />
<text  x="80.28" y="243.5" ></text>
</g>
<g >
<title>malloc_consolidate (2 samples, 0.15%)</title><rect x="1578.4" y="187" width="2.3" height="35.0" fill="rgb(245,112,45)" rx="2" ry="2" />
<text  x="1581.40" y="207.5" ></text>
</g>
<g >
<title>Acts::detail::sp::ColumnHolder::emplace_back (10 samples, 0.73%)</title><rect x="146.9" y="223" width="11.6" height="35.0" fill="rgb(242,164,40)" rx="2" ry="2" />
<text  x="149.89" y="243.5" ></text>
</g>
<g >
<title>std::__introsort_loop (26 samples, 1.91%)</title><rect x="1250.1" y="151" width="30.2" height="35.0" fill="rgb(248,146,47)" rx="2" ry="2" />
<text  x="1253.10" y="171.5" >s..</text>
</g>
<g >
<title>std::__unguarded_partition (11 samples, 0.81%)</title><rect x="1267.5" y="115" width="12.8" height="35.0" fill="rgb(247,146,46)" rx="2" ry="2" />
<text  x="1270.50" y="135.5" ></text>
</g>
<g >
<title>std::_Hashtable::_M_insert_unique_node (3 samples, 0.22%)</title><rect x="1175.9" y="187" width="3.4" height="35.0" fill="rgb(250,146,49)" rx="2" ry="2" />
<text  x="1178.86" y="207.5" ></text>
</g>
<g >
<title>ActsExamples::SimSpacePoint::eta (41 samples, 3.01%)</title><rect x="43.6" y="295" width="47.6" height="35.0" fill="rgb(232,164,30)" rx="2" ry="2" />
<text  x="46.64" y="315.5" >Act..</text>
</g>
<g >
<title>std::__new_allocator::allocate (2 samples, 0.15%)</title><rect x="1580.7" y="259" width="2.3" height="35.0" fill="rgb(245,146,45)" rx="2" ry="2" />
<text  x="1583.72" y="279.5" ></text>
</g>
<g >
<title>Acts::DoubletsForMiddleSp::sortByCotTheta() (8 samples, 0.59%)</title><rect x="1238.5" y="151" width="9.3" height="35.0" fill="rgb(244,164,43)" rx="2" ry="2" />
<text  x="1241.50" y="171.5" ></text>
</g>
<g >
<title>std::__detail::_Hash_node::_M_next (2 samples, 0.15%)</title><rect x="1542.4" y="259" width="2.4" height="35.0" fill="rgb(230,146,27)" rx="2" ry="2" />
<text  x="1545.44" y="279.5" ></text>
</g>
<g >
<title>std::vector::reserve (3 samples, 0.22%)</title><rect x="749.0" y="151" width="3.4" height="35.0" fill="rgb(240,146,38)" rx="2" ry="2" />
<text  x="751.96" y="171.5" ></text>
</g>
<g >
<title>__memcpy_avx_unaligned_erms (3 samples, 0.22%)</title><rect x="1232.7" y="151" width="3.5" height="35.0" fill="rgb(231,151,28)" rx="2" ry="2" />
<text  x="1235.70" y="171.5" ></text>
</g>
<g >
<title>Acts::SpacePointContainer2::varianceZ (5 samples, 0.37%)</title><rect x="432.3" y="151" width="5.8" height="35.0" fill="rgb(250,164,50)" rx="2" ry="2" />
<text  x="435.26" y="171.5" ></text>
</g>
<g >
<title>std::__invoke_impl (4 samples, 0.29%)</title><rect x="782.6" y="151" width="4.6" height="35.0" fill="rgb(238,146,36)" rx="2" ry="2" />
<text  x="785.60" y="171.5" ></text>
</g>
<g >
<title>Acts::DoubletsForMiddleSp::sortByCotTheta() (2 samples, 0.15%)</title><rect x="1253.6" y="115" width="2.3" height="35.0" fill="rgb(244,164,43)" rx="2" ry="2" />
<text  x="1256.58" y="135.5" ></text>
</g>
<g >
<title>std::_Hashtable::_M_insert_bucket_begin (2 samples, 0.15%)</title><rect x="1173.5" y="187" width="2.4" height="35.0" fill="rgb(243,146,42)" rx="2" ry="2" />
<text  x="1176.54" y="207.5" ></text>
</g>
<g >
<title>std::construct_at (2 samples, 0.15%)</title><rect x="1447.3" y="187" width="2.3" height="35.0" fill="rgb(226,146,24)" rx="2" ry="2" />
<text  x="1450.31" y="207.5" ></text>
</g>
<g >
<title>std::swap (4 samples, 0.29%)</title><rect x="1319.7" y="151" width="4.6" height="35.0" fill="rgb(233,146,31)" rx="2" ry="2" />
<text  x="1322.71" y="171.5" ></text>
</g>
<g >
<title>Acts::detail::grid_helper_impl::getGlobalBin (5 samples, 0.37%)</title><rect x="1486.8" y="259" width="5.8" height="35.0" fill="rgb(244,164,43)" rx="2" ry="2" />
<text  x="1489.75" y="279.5" ></text>
</g>
<g >
<title>Acts::DoubletsForMiddleSp::Proxy::spacePointIndex (2 samples, 0.15%)</title><rect x="413.7" y="151" width="2.3" height="35.0" fill="rgb(250,164,49)" rx="2" ry="2" />
<text  x="416.70" y="171.5" ></text>
</g>
<g >
<title>std::vector::push_back (6 samples, 0.44%)</title><rect x="1559.8" y="259" width="7.0" height="35.0" fill="rgb(242,146,40)" rx="2" ry="2" />
<text  x="1562.84" y="279.5" ></text>
</g>
<g >
<title>std::__unguarded_insertion_sort (5 samples, 0.37%)</title><rect x="1324.3" y="187" width="5.8" height="35.0" fill="rgb(238,146,36)" rx="2" ry="2" />
<text  x="1327.35" y="207.5" ></text>
</g>
<g >
<title>Acts::SpacePointProxy2::assignSourceLinks (9 samples, 0.66%)</title><rect x="30.9" y="295" width="10.4" height="35.0" fill="rgb(236,164,34)" rx="2" ry="2" />
<text  x="33.88" y="315.5" ></text>
</g>
<g >
<title>Acts::detail::ContainerIterator::operator++ (2 samples, 0.15%)</title><rect x="1484.4" y="259" width="2.4" height="35.0" fill="rgb(234,164,32)" rx="2" ry="2" />
<text  x="1487.43" y="279.5" ></text>
</g>
<g >
<title>__memcpy_avx_unaligned_erms (4 samples, 0.29%)</title><rect x="1525.0" y="223" width="4.7" height="35.0" fill="rgb(231,151,28)" rx="2" ry="2" />
<text  x="1528.04" y="243.5" ></text>
</g>
<g >
<title>Acts::GridBinFinder::findBins (11 samples, 0.81%)</title><rect x="128.3" y="223" width="12.8" height="35.0" fill="rgb(240,164,38)" rx="2" ry="2" />
<text  x="131.33" y="243.5" ></text>
</g>
<g >
<title>std::__new_allocator::deallocate (5 samples, 0.37%)</title><rect x="14.6" y="259" width="5.8" height="35.0" fill="rgb(245,146,45)" rx="2" ry="2" />
<text  x="17.64" y="279.5" ></text>
</g>
<g >
<title>Acts::BroadTripletSeedFilter::sufficientTopDoublets (2 samples, 0.15%)</title><rect x="796.5" y="187" width="2.3" height="35.0" fill="rgb(236,164,34)" rx="2" ry="2" />
<text  x="799.52" y="207.5" ></text>
</g>
<g >
<title>createDoubletsImpl (260 samples, 19.09%)</title><rect x="830.2" y="187" width="301.6" height="35.0" fill="rgb(238,121,36)" rx="2" ry="2" />
<text  x="833.16" y="207.5" >createDoubletsImpl</text>
</g>
<g >
<title>Acts::AnyBase::as (4 samples, 0.29%)</title><rect x="10.0" y="295" width="4.6" height="35.0" fill="rgb(229,164,26)" rx="2" ry="2" />
<text  x="13.00" y="315.5" ></text>
</g>
<g >
<title>__free (10 samples, 0.73%)</title><rect x="1569.1" y="259" width="11.6" height="35.0" fill="rgb(246,135,46)" rx="2" ry="2" />
<text  x="1572.12" y="279.5" ></text>
</g>
<g >
<title>_int_malloc (6 samples, 0.44%)</title><rect x="1225.7" y="79" width="7.0" height="35.0" fill="rgb(238,153,36)" rx="2" ry="2" />
<text  x="1228.74" y="99.5" ></text>
</g>
<g >
<title>std::__new_allocator::allocate (6 samples, 0.44%)</title><rect x="1545.9" y="259" width="7.0" height="35.0" fill="rgb(245,146,45)" rx="2" ry="2" />
<text  x="1548.92" y="279.5" ></text>
</g>
<g >
<title>__gnu_cxx::operator- (2 samples, 0.15%)</title><rect x="779.1" y="151" width="2.3" height="35.0" fill="rgb(239,132,38)" rx="2" ry="2" />
<text  x="782.12" y="171.5" ></text>
</g>
<g >
<title>std::_Hashtable::_M_find_before_node (9 samples, 0.66%)</title><rect x="1163.1" y="187" width="10.4" height="35.0" fill="rgb(250,146,49)" rx="2" ry="2" />
<text  x="1166.10" y="207.5" ></text>
</g>
<g >
<title>Acts::TripletTopCandidates::emplace_back (2 samples, 0.15%)</title><rect x="710.7" y="115" width="2.3" height="35.0" fill="rgb(242,164,40)" rx="2" ry="2" />
<text  x="713.68" y="135.5" ></text>
</g>
<g >
<title>std::__invoke_impl (6 samples, 0.44%)</title><rect x="383.5" y="79" width="7.0" height="35.0" fill="rgb(238,146,36)" rx="2" ry="2" />
<text  x="386.54" y="99.5" ></text>
</g>
<g >
<title>Acts::BroadTripletSeedFilter::filterTripletTopCandidates (92 samples, 6.75%)</title><rect x="307.0" y="151" width="106.7" height="35.0" fill="rgb(238,164,36)" rx="2" ry="2" />
<text  x="309.98" y="171.5" >Acts::Broa..</text>
</g>
<g >
<title>__gnu_cxx::operator- (2 samples, 0.15%)</title><rect x="827.8" y="187" width="2.4" height="35.0" fill="rgb(239,132,38)" rx="2" ry="2" />
<text  x="830.84" y="207.5" ></text>
</g>
<g >
<title>Acts::CandidatesForMiddleSp2::push (7 samples, 0.51%)</title><rect x="368.5" y="79" width="8.1" height="35.0" fill="rgb(236,164,34)" rx="2" ry="2" />
<text  x="371.46" y="99.5" ></text>
</g>
<g >
<title>__gnu_cxx::__normal_iterator::operator++ (2 samples, 0.15%)</title><rect x="1258.2" y="115" width="2.3" height="35.0" fill="rgb(234,132,32)" rx="2" ry="2" />
<text  x="1261.22" y="135.5" ></text>
</g>
<g >
<title>std::vector::size (7 samples, 0.51%)</title><rect x="752.4" y="151" width="8.2" height="35.0" fill="rgb(245,146,44)" rx="2" ry="2" />
<text  x="755.44" y="171.5" ></text>
</g>
<g >
<title>operator (6 samples, 0.44%)</title><rect x="1545.9" y="223" width="7.0" height="35.0" fill="rgb(241,195,39)" rx="2" ry="2" />
<text  x="1548.92" y="243.5" ></text>
</g>
<g >
<title>_int_free (4 samples, 0.29%)</title><rect x="15.8" y="187" width="4.6" height="35.0" fill="rgb(246,153,46)" rx="2" ry="2" />
<text  x="18.80" y="207.5" ></text>
</g>
<g >
<title>std::vector::operator[] (13 samples, 0.95%)</title><rect x="733.9" y="151" width="15.1" height="35.0" fill="rgb(242,146,41)" rx="2" ry="2" />
<text  x="736.88" y="171.5" ></text>
</g>
<g >
<title>std::vector::emplace_back (9 samples, 0.66%)</title><rect x="1467.0" y="187" width="10.5" height="35.0" fill="rgb(242,146,40)" rx="2" ry="2" />
<text  x="1470.03" y="207.5" ></text>
</g>
<g >
<title>std::span::subspan (5 samples, 0.37%)</title><rect x="1455.4" y="187" width="5.8" height="35.0" fill="rgb(242,146,41)" rx="2" ry="2" />
<text  x="1458.43" y="207.5" ></text>
</g>
<g >
<title>operator() (27 samples, 1.98%)</title><rect x="1131.8" y="187" width="31.3" height="35.0" fill="rgb(241,195,40)" rx="2" ry="2" />
<text  x="1134.78" y="207.5" >o..</text>
</g>
<g >
<title>std::vector::emplace_back (3 samples, 0.22%)</title><rect x="404.4" y="79" width="3.5" height="35.0" fill="rgb(242,146,40)" rx="2" ry="2" />
<text  x="407.42" y="99.5" ></text>
</g>
<g >
<title>Acts::(anonymous (486 samples, 35.68%)</title><rect x="196.8" y="187" width="563.8" height="35.0" fill="rgb(236,164,34)" rx="2" ry="2" />
<text  x="199.77" y="207.5" >Acts::(anonymous</text>
</g>
<g >
<title>__GI___libc_malloc (7 samples, 0.51%)</title><rect x="1224.6" y="115" width="8.1" height="35.0" fill="rgb(238,119,36)" rx="2" ry="2" />
<text  x="1227.58" y="135.5" ></text>
</g>
<g >
<title>Acts::(anonymous (1,115 samples, 81.86%)</title><rect x="185.2" y="223" width="1293.4" height="35.0" fill="rgb(236,164,34)" rx="2" ry="2" />
<text  x="188.17" y="243.5" >Acts::(anonymous</text>
</g>
<g >
<title>_int_malloc (2 samples, 0.15%)</title><rect x="1580.7" y="151" width="2.3" height="35.0" fill="rgb(238,153,36)" rx="2" ry="2" />
<text  x="1583.72" y="171.5" ></text>
</g>
<g >
<title>std::span::operator[] (3 samples, 0.22%)</title><rect x="1452.0" y="187" width="3.4" height="35.0" fill="rgb(242,146,41)" rx="2" ry="2" />
<text  x="1454.95" y="207.5" ></text>
</g>
<g >
<title>__memcpy_avx_unaligned_erms (3 samples, 0.22%)</title><rect x="810.4" y="115" width="3.5" height="35.0" fill="rgb(231,151,28)" rx="2" ry="2" />
<text  x="813.44" y="135.5" ></text>
</g>
<g >
<title>std::__adjust_heap (4 samples, 0.29%)</title><rect x="378.9" y="79" width="4.6" height="35.0" fill="rgb(238,146,36)" rx="2" ry="2" />
<text  x="381.90" y="99.5" ></text>
</g>
<g >
<title>malloc_consolidate (2 samples, 0.15%)</title><rect x="18.1" y="151" width="2.3" height="35.0" fill="rgb(245,112,45)" rx="2" ry="2" />
<text  x="21.12" y="171.5" ></text>
</g>
</g>
</svg>
