<?xml version="1.0" standalone="no"?>
<!DOCTYPE svg PUBLIC "-//W3C//DTD SVG 1.1//EN" "http://www.w3.org/Graphics/SVG/1.1/DTD/svg11.dtd">
<svg version="1.1" width="1600" height="440" onload="init(evt)" viewBox="0 0 1600 440" xmlns="http://www.w3.org/2000/svg" xmlns:xlink="http://www.w3.org/1999/xlink">
<!-- Flame graph stack visualization. See https://github.com/brendangregg/FlameGraph for latest version, and http://www.brendangregg.com/flamegraphs.html for examples. -->
<!-- NOTES:  -->
<defs>
	</defs>
<style type="text/css">
	text { font-family:Verdana; font-size:14px; fill:rgb(0,0,0); }
	#subtitle { text-anchor:middle; font-color:rgb(160,160,160); }
	#title { text-anchor:middle; font-size:19px}
	#unzoom { cursor:pointer; }
	#frames > *:hover { stroke:black; stroke-width:0.5; cursor:pointer; }
	.hide { display:none; }
	.parent { opacity:0.5; }
</style>
<rect x="0.0" y="0" width="1600.0" height="440.0" fill="white"  />
<text id="title" x="800.00" y="28" >Seeding2</text>
<g id="frames">
<g >
<title>Acts::CandidatesForMiddleSp2::push (94 samples, 0.61%)</title><rect x="164.7" y="115" width="9.6" height="35.0" fill="rgb(236,164,34)" rx="2" ry="2" />
<text  x="167.69" y="135.5" ></text>
</g>
<g >
<title>std::__introsort_loop (1,906 samples, 12.39%)</title><rect x="1165.9" y="187" width="195.8" height="35.0" fill="rgb(248,146,47)" rx="2" ry="2" />
<text  x="1168.88" y="207.5" >std::__introsort_loop</text>
</g>
<g >
<title>std::swap (44 samples, 0.29%)</title><rect x="1294.3" y="115" width="4.5" height="35.0" fill="rgb(233,146,31)" rx="2" ry="2" />
<text  x="1297.28" y="135.5" ></text>
</g>
<g >
<title>std::__unguarded_insertion_sort (29 samples, 0.19%)</title><rect x="1421.3" y="223" width="3.0" height="35.0" fill="rgb(238,146,36)" rx="2" ry="2" />
<text  x="1424.34" y="243.5" ></text>
</g>
<g >
<title>Acts::SpacePointContainer2::varianceZ (76 samples, 0.49%)</title><rect x="218.4" y="187" width="7.8" height="35.0" fill="rgb(250,164,50)" rx="2" ry="2" />
<text  x="221.41" y="207.5" ></text>
</g>
<g >
<title>std::__unguarded_partition (54 samples, 0.35%)</title><rect x="1229.7" y="43" width="5.5" height="35.0" fill="rgb(247,146,46)" rx="2" ry="2" />
<text  x="1232.67" y="63.5" ></text>
</g>
<g >
<title>Acts::DoubletsForMiddleSp::Proxy::cotTheta (20 samples, 0.13%)</title><rect x="191.3" y="187" width="2.1" height="35.0" fill="rgb(232,164,30)" rx="2" ry="2" />
<text  x="194.30" y="207.5" ></text>
</g>
<g >
<title>std::__introsort_loop (499 samples, 3.24%)</title><rect x="1206.1" y="115" width="51.3" height="35.0" fill="rgb(248,146,47)" rx="2" ry="2" />
<text  x="1209.14" y="135.5" >std:..</text>
</g>
<g >
<title>std::vector::_M_erase_at_end (36 samples, 0.23%)</title><rect x="1570.2" y="223" width="3.7" height="35.0" fill="rgb(251,146,51)" rx="2" ry="2" />
<text  x="1573.18" y="243.5" ></text>
</g>
<g >
<title>Acts::SpacePointColumnProxy::operator[] (26 samples, 0.17%)</title><rect x="212.5" y="187" width="2.6" height="35.0" fill="rgb(242,164,41)" rx="2" ry="2" />
<text  x="215.46" y="207.5" ></text>
</g>
<g >
<title>std::__push_heap (29 samples, 0.19%)</title><rect x="180.9" y="115" width="3.0" height="35.0" fill="rgb(238,146,36)" rx="2" ry="2" />
<text  x="183.92" y="135.5" ></text>
</g>
<g >
<title>Acts::(anonymous (6,489 samples, 42.19%)</title><rect x="17.1" y="223" width="666.5" height="35.0" fill="rgb(236,164,34)" rx="2" ry="2" />
<text  x="20.09" y="243.5" >Acts::(anonymous</text>
</g>
<g >
<title>std::vector::operator[] (214 samples, 1.39%)</title><rect x="647.3" y="187" width="21.9" height="35.0" fill="rgb(242,146,41)" rx="2" ry="2" />
<text  x="650.26" y="207.5" ></text>
</g>
<g >
<title>std::vector::push_back (26 samples, 0.17%)</title><rect x="669.2" y="187" width="2.7" height="35.0" fill="rgb(242,146,40)" rx="2" ry="2" />
<text  x="672.24" y="207.5" ></text>
</g>
<g >
<title>Acts::TripletTopCandidates::emplace_back (20 samples, 0.13%)</title><rect x="614.0" y="151" width="2.0" height="35.0" fill="rgb(242,164,40)" rx="2" ry="2" />
<text  x="616.98" y="171.5" ></text>
</g>
<g >
<title>std::__introsort_loop (1,073 samples, 6.98%)</title><rect x="1188.6" y="151" width="110.2" height="35.0" fill="rgb(248,146,47)" rx="2" ry="2" />
<text  x="1191.58" y="171.5" >std::__intr..</text>
</g>
<g >
<title>std::vector::reserve (40 samples, 0.26%)</title><rect x="671.9" y="187" width="4.1" height="35.0" fill="rgb(240,146,38)" rx="2" ry="2" />
<text  x="674.91" y="207.5" ></text>
</g>
<g >
<title>std::__sort (2,718 samples, 17.67%)</title><rect x="1142.2" y="223" width="279.1" height="35.0" fill="rgb(238,146,36)" rx="2" ry="2" />
<text  x="1145.15" y="243.5" >std::__sort</text>
</g>
<g >
<title>all (15,382 samples, 100%)</title><rect x="10.0" y="367" width="1580.0" height="35.0" fill="rgb(255,230,55)" rx="2" ry="2" />
<text  x="13.00" y="387.5" ></text>
</g>
<g >
<title>operator (20 samples, 0.13%)</title><rect x="1139.9" y="187" width="2.0" height="35.0" fill="rgb(241,195,39)" rx="2" ry="2" />
<text  x="1142.89" y="207.5" ></text>
</g>
<g >
<title>std::__introsort_loop (28 samples, 0.18%)</title><rect x="232.5" y="151" width="2.9" height="35.0" fill="rgb(248,146,47)" rx="2" ry="2" />
<text  x="235.49" y="171.5" ></text>
</g>
<g >
<title>std::__introsort_loop (49 samples, 0.32%)</title><rect x="1224.0" y="43" width="5.1" height="35.0" fill="rgb(248,146,47)" rx="2" ry="2" />
<text  x="1227.02" y="63.5" ></text>
</g>
<g >
<title>__sort (48 samples, 0.31%)</title><rect x="230.4" y="187" width="5.0" height="35.0" fill="rgb(238,132,36)" rx="2" ry="2" />
<text  x="233.43" y="207.5" ></text>
</g>
<g >
<title>Acts::DoubletsForMiddleSp::sortByCotTheta() (196 samples, 1.27%)</title><rect x="1142.5" y="187" width="20.1" height="35.0" fill="rgb(244,164,43)" rx="2" ry="2" />
<text  x="1145.46" y="207.5" ></text>
</g>
<g >
<title>Acts::detail::ContainerSubset::Iterator::operator* (31 samples, 0.20%)</title><rect x="691.1" y="223" width="3.2" height="35.0" fill="rgb(245,164,44)" rx="2" ry="2" />
<text  x="694.12" y="243.5" ></text>
</g>
<g >
<title>Acts::DoubletsForMiddleSp::Proxy::spacePointIndex (37 samples, 0.24%)</title><rect x="193.9" y="187" width="3.8" height="35.0" fill="rgb(250,164,49)" rx="2" ry="2" />
<text  x="196.86" y="207.5" ></text>
</g>
<g >
<title>operator() (234 samples, 1.52%)</title><rect x="1106.3" y="223" width="24.0" height="35.0" fill="rgb(241,195,40)" rx="2" ry="2" />
<text  x="1109.30" y="243.5" ></text>
</g>
<g >
<title>std::__invoke_impl (49 samples, 0.32%)</title><rect x="175.9" y="115" width="5.0" height="35.0" fill="rgb(238,146,36)" rx="2" ry="2" />
<text  x="178.89" y="135.5" ></text>
</g>
<g >
<title>Acts::CandidatesForMiddleSp2::comparator (38 samples, 0.25%)</title><rect x="176.9" y="79" width="3.9" height="35.0" fill="rgb(241,164,39)" rx="2" ry="2" />
<text  x="179.92" y="99.5" ></text>
</g>
<g >
<title>std::iota (28 samples, 0.18%)</title><rect x="629.8" y="187" width="2.9" height="35.0" fill="rgb(234,146,32)" rx="2" ry="2" />
<text  x="632.80" y="207.5" ></text>
</g>
<g >
<title>Acts::BroadTripletSeedFilter::filterTripletTopCandidates (838 samples, 5.45%)</title><rect x="105.2" y="187" width="86.1" height="35.0" fill="rgb(238,164,36)" rx="2" ry="2" />
<text  x="108.22" y="207.5" >Acts::Br..</text>
</g>
<g >
<title>Acts::CandidatesForMiddleSp2::push (270 samples, 1.76%)</title><rect x="163.6" y="151" width="27.7" height="35.0" fill="rgb(236,164,34)" rx="2" ry="2" />
<text  x="166.56" y="171.5" >A..</text>
</g>
<g >
<title>std::__new_allocator::allocate (21 samples, 0.14%)</title><rect x="1139.8" y="223" width="2.1" height="35.0" fill="rgb(245,146,45)" rx="2" ry="2" />
<text  x="1142.79" y="243.5" ></text>
</g>
<g >
<title>std::__unguarded_partition (518 samples, 3.37%)</title><rect x="1363.4" y="187" width="53.2" height="35.0" fill="rgb(247,146,46)" rx="2" ry="2" />
<text  x="1366.41" y="207.5" >std:..</text>
</g>
<g >
<title>std::__detail::__extent_storage::_M_extent (66 samples, 0.43%)</title><rect x="620.6" y="187" width="6.7" height="35.0" fill="rgb(241,146,39)" rx="2" ry="2" />
<text  x="623.55" y="207.5" ></text>
</g>
<g >
<title>Acts::TripletSeeder::createSeedsFromGroups (15,250 samples, 99.14%)</title><rect x="16.1" y="295" width="1566.4" height="35.0" fill="rgb(237,164,36)" rx="2" ry="2" />
<text  x="19.06" y="315.5" >Acts::TripletSeeder::createSeedsFromGroups</text>
</g>
<g >
<title>std::__unguarded_partition (550 samples, 3.58%)</title><rect x="1300.4" y="151" width="56.5" height="35.0" fill="rgb(247,146,46)" rx="2" ry="2" />
<text  x="1303.44" y="171.5" >std:..</text>
</g>
<g >
<title>std::__unguarded_partition (336 samples, 2.18%)</title><rect x="1259.8" y="115" width="34.5" height="35.0" fill="rgb(247,146,46)" rx="2" ry="2" />
<text  x="1262.76" y="135.5" >st..</text>
</g>
<g >
<title>Acts::DoubletsForMiddleSp::sortByCotTheta() (60 samples, 0.39%)</title><rect x="1210.4" y="79" width="6.1" height="35.0" fill="rgb(244,164,43)" rx="2" ry="2" />
<text  x="1213.36" y="99.5" ></text>
</g>
<g >
<title>std::vector::capacity (37 samples, 0.24%)</title><rect x="639.6" y="187" width="3.8" height="35.0" fill="rgb(240,146,38)" rx="2" ry="2" />
<text  x="642.56" y="207.5" ></text>
</g>
<g >
<title>Acts::(anonymous (326 samples, 2.12%)</title><rect x="70.2" y="187" width="33.5" height="35.0" fill="rgb(236,164,34)" rx="2" ry="2" />
<text  x="73.19" y="207.5" >Ac..</text>
</g>
<g >
<title>std::vector::size (53 samples, 0.34%)</title><rect x="678.2" y="187" width="5.4" height="35.0" fill="rgb(245,146,44)" rx="2" ry="2" />
<text  x="681.18" y="207.5" ></text>
</g>
<g >
<title>std::__unguarded_partition (171 samples, 1.11%)</title><rect x="1238.2" y="79" width="17.6" height="35.0" fill="rgb(247,146,46)" rx="2" ry="2" />
<text  x="1241.19" y="99.5" ></text>
</g>
<g >
<title>std::swap (46 samples, 0.30%)</title><rect x="1416.6" y="187" width="4.7" height="35.0" fill="rgb(233,146,31)" rx="2" ry="2" />
<text  x="1419.61" y="207.5" ></text>
</g>
<g >
<title>std::vector::emplace_back (64 samples, 0.42%)</title><rect x="1574.9" y="223" width="6.6" height="35.0" fill="rgb(242,146,40)" rx="2" ry="2" />
<text  x="1577.90" y="243.5" ></text>
</g>
<g >
<title>Acts::DoubletsForMiddleSp::sortByCotTheta (20 samples, 0.13%)</title><rect x="686.8" y="223" width="2.1" height="35.0" fill="rgb(232,164,30)" rx="2" ry="2" />
<text  x="689.81" y="243.5" ></text>
</g>
<g >
<title>Acts::DoubletsForMiddleSp::sortByCotTheta() (112 samples, 0.73%)</title><rect x="1191.0" y="115" width="11.5" height="35.0" fill="rgb(244,164,43)" rx="2" ry="2" />
<text  x="1194.05" y="135.5" ></text>
</g>
<g >
<title>std::vector::push_back (49 samples, 0.32%)</title><rect x="1101.3" y="187" width="5.0" height="35.0" fill="rgb(242,146,40)" rx="2" ry="2" />
<text  x="1104.27" y="207.5" ></text>
</g>
<g >
<title>std::__unguarded_linear_insert (1,354 samples, 8.80%)</title><rect x="1424.3" y="223" width="139.1" height="35.0" fill="rgb(236,146,34)" rx="2" ry="2" />
<text  x="1427.32" y="243.5" >std::__unguard..</text>
</g>
<g >
<title>std::swap (46 samples, 0.30%)</title><rect x="1356.9" y="151" width="4.8" height="35.0" fill="rgb(233,146,31)" rx="2" ry="2" />
<text  x="1359.93" y="171.5" ></text>
</g>
<g >
<title>std::__move_median_to_first (23 samples, 0.15%)</title><rect x="1257.4" y="115" width="2.4" height="35.0" fill="rgb(234,146,32)" rx="2" ry="2" />
<text  x="1260.40" y="135.5" ></text>
</g>
<g >
<title>std::construct_at (22 samples, 0.14%)</title><rect x="1563.4" y="223" width="2.3" height="35.0" fill="rgb(226,146,24)" rx="2" ry="2" />
<text  x="1566.40" y="243.5" ></text>
</g>
<g >
<title>Acts::DoubletsForMiddleSp::emplace_back (112 samples, 0.73%)</title><rect x="1084.6" y="187" width="11.5" height="35.0" fill="rgb(242,164,40)" rx="2" ry="2" />
<text  x="1087.63" y="207.5" ></text>
</g>
<g >
<title>std::vector::emplace_back (38 samples, 0.25%)</title><rect x="643.4" y="187" width="3.9" height="35.0" fill="rgb(242,146,40)" rx="2" ry="2" />
<text  x="646.36" y="207.5" ></text>
</g>
<g >
<title>std::__copy_move_backward::__copy_move_b (22 samples, 0.14%)</title><rect x="1133.0" y="223" width="2.3" height="35.0" fill="rgb(229,146,27)" rx="2" ry="2" />
<text  x="1136.01" y="243.5" ></text>
</g>
<g >
<title>Acts::DoubletsForMiddleSp::emplace_back (65 samples, 0.42%)</title><rect x="205.8" y="187" width="6.7" height="35.0" fill="rgb(242,164,40)" rx="2" ry="2" />
<text  x="208.78" y="207.5" ></text>
</g>
<g >
<title>std::vector::emplace_back (50 samples, 0.33%)</title><rect x="1096.1" y="187" width="5.2" height="35.0" fill="rgb(242,146,40)" rx="2" ry="2" />
<text  x="1099.13" y="207.5" ></text>
</g>
<g >
<title>createDoubletsImpl (4,011 samples, 26.08%)</title><rect x="694.3" y="223" width="412.0" height="35.0" fill="rgb(238,121,36)" rx="2" ry="2" />
<text  x="697.30" y="243.5" >createDoubletsImpl</text>
</g>
<g >
<title>std::sqrt (28 samples, 0.18%)</title><rect x="1567.3" y="223" width="2.9" height="35.0" fill="rgb(236,146,34)" rx="2" ry="2" />
<text  x="1570.30" y="243.5" ></text>
</g>
<g >
<title>std::span::subspan (37 samples, 0.24%)</title><rect x="634.2" y="187" width="3.8" height="35.0" fill="rgb(242,146,41)" rx="2" ry="2" />
<text  x="637.21" y="207.5" ></text>
</g>
<g >
<title>std::vector::resize (21 samples, 0.14%)</title><rect x="676.0" y="187" width="2.2" height="35.0" fill="rgb(245,146,44)" rx="2" ry="2" />
<text  x="679.02" y="207.5" ></text>
</g>
<g >
<title>Acts::DoubletsForMiddleSp::sortByCotTheta() (183 samples, 1.19%)</title><rect x="1167.0" y="151" width="18.8" height="35.0" fill="rgb(244,164,43)" rx="2" ry="2" />
<text  x="1170.01" y="171.5" ></text>
</g>
<g >
<title>Acts::BroadTripletSeedFilter::filterTripletsMiddleFixed (28 samples, 0.18%)</title><rect x="683.6" y="223" width="2.9" height="35.0" fill="rgb(252,164,52)" rx="2" ry="2" />
<text  x="686.62" y="243.5" ></text>
</g>
<g >
<title>ActsExamples::GridTripletSeedingAlgorithm::execute (15,320 samples, 99.60%)</title><rect x="13.4" y="331" width="1573.6" height="35.0" fill="rgb(240,164,38)" rx="2" ry="2" />
<text  x="16.39" y="351.5" >ActsExamples::GridTripletSeedingAlgorithm::execute</text>
</g>
<g >
<title>std::pair::operator= (41 samples, 0.27%)</title><rect x="183.9" y="115" width="4.2" height="35.0" fill="rgb(246,146,45)" rx="2" ry="2" />
<text  x="186.90" y="135.5" ></text>
</g>
<g >
<title>std::__introsort_loop (175 samples, 1.14%)</title><rect x="1218.3" y="79" width="17.9" height="35.0" fill="rgb(248,146,47)" rx="2" ry="2" />
<text  x="1221.27" y="99.5" ></text>
</g>
<g >
<title>Acts::(anonymous (15,241 samples, 99.08%)</title><rect x="16.2" y="259" width="1565.5" height="35.0" fill="rgb(236,164,34)" rx="2" ry="2" />
<text  x="19.16" y="279.5" >Acts::(anonymous</text>
</g>
<g >
<title>createPixelTripletTopCandidates (3,727 samples, 24.23%)</title><rect x="235.6" y="187" width="382.8" height="35.0" fill="rgb(238,121,36)" rx="2" ry="2" />
<text  x="238.57" y="207.5" >createPixelTripletTopCandidates</text>
</g>
<g >
<title>Acts::SpacePointContainer2::varianceR (32 samples, 0.21%)</title><rect x="215.1" y="187" width="3.3" height="35.0" fill="rgb(247,164,46)" rx="2" ry="2" />
<text  x="218.13" y="207.5" ></text>
</g>
<g >
<title>std::__insertion_sort (27 samples, 0.18%)</title><rect x="1137.0" y="223" width="2.8" height="35.0" fill="rgb(238,146,36)" rx="2" ry="2" />
<text  x="1140.02" y="243.5" ></text>
</g>
<g >
<title>Acts::DoubletsForMiddleSp::Proxy::u (68 samples, 0.44%)</title><rect x="197.7" y="187" width="6.9" height="35.0" fill="rgb(232,164,30)" rx="2" ry="2" />
<text  x="200.66" y="207.5" ></text>
</g>
</g>
</svg>
