<?xml version="1.0" standalone="no"?>
<!DOCTYPE svg PUBLIC "-//W3C//DTD SVG 1.1//EN" "http://www.w3.org/Graphics/SVG/1.1/DTD/svg11.dtd">
<svg version="1.1" width="1600" height="332" onload="init(evt)" viewBox="0 0 1600 332" xmlns="http://www.w3.org/2000/svg" xmlns:xlink="http://www.w3.org/1999/xlink">
<!-- Flame graph stack visualization. See https://github.com/brendangregg/FlameGraph for latest version, and http://www.brendangregg.com/flamegraphs.html for examples. -->
<!-- NOTES:  -->
<defs>
	</defs>
<style type="text/css">
	text { font-family:Verdana; font-size:14px; fill:rgb(0,0,0); }
	#subtitle { text-anchor:middle; font-color:rgb(160,160,160); }
	#title { text-anchor:middle; font-size:19px}
	#unzoom { cursor:pointer; }
	#frames > *:hover { stroke:black; stroke-width:0.5; cursor:pointer; }
	.hide { display:none; }
	.parent { opacity:0.5; }
</style>
<rect x="0.0" y="0" width="1600.0" height="332.0" fill="white"  />
<g id="frames">
<g >
<title>Acts::Axis::wrapBin (39 samples, 0.24%)</title><rect x="13.0" y="187" width="3.8" height="35.0" fill="rgb(244,164,43)" rx="2" ry="2" />
<text  x="15.99" y="207.5" ></text>
</g>
<g >
<title>std::__introsort_loop (470 samples, 2.87%)</title><rect x="1341.7" y="115" width="45.3" height="35.0" fill="rgb(248,146,47)" rx="2" ry="2" />
<text  x="1344.67" y="135.5" >std..</text>
</g>
<g >
<title>__memset_avx2_unaligned (28 samples, 0.17%)</title><rect x="1253.3" y="115" width="2.7" height="35.0" fill="rgb(251,151,51)" rx="2" ry="2" />
<text  x="1256.30" y="135.5" ></text>
</g>
<g >
<title>__memset_avx2_unaligned_erms (43 samples, 0.26%)</title><rect x="1256.0" y="115" width="4.1" height="35.0" fill="rgb(231,151,28)" rx="2" ry="2" />
<text  x="1259.00" y="135.5" ></text>
</g>
<g >
<title>std::vector::emplace_back (55 samples, 0.34%)</title><rect x="1170.8" y="115" width="5.3" height="35.0" fill="rgb(242,146,40)" rx="2" ry="2" />
<text  x="1173.81" y="135.5" ></text>
</g>
<g >
<title>Acts::Logger::doPrint (22 samples, 0.13%)</title><rect x="75.1" y="151" width="2.1" height="35.0" fill="rgb(238,164,36)" rx="2" ry="2" />
<text  x="78.12" y="171.5" ></text>
</g>
<g >
<title>std::__introsort_loop (40 samples, 0.24%)</title><rect x="1359.6" y="43" width="3.9" height="35.0" fill="rgb(248,146,47)" rx="2" ry="2" />
<text  x="1362.61" y="63.5" ></text>
</g>
<g >
<title>Acts::CylindricalSpacePointGridCreator::fillGrid (351 samples, 2.14%)</title><rect x="10.3" y="223" width="33.9" height="35.0" fill="rgb(244,164,43)" rx="2" ry="2" />
<text  x="13.29" y="243.5" >Ac..</text>
</g>
<g >
<title>std::__new_allocator::allocate (104 samples, 0.64%)</title><rect x="1310.1" y="151" width="10.1" height="35.0" fill="rgb(245,146,45)" rx="2" ry="2" />
<text  x="1313.12" y="171.5" ></text>
</g>
<g >
<title>std::vector::emplace_back (96 samples, 0.59%)</title><rect x="1498.8" y="151" width="9.3" height="35.0" fill="rgb(242,146,40)" rx="2" ry="2" />
<text  x="1501.83" y="171.5" ></text>
</g>
<g >
<title>std::__invoke_impl (121 samples, 0.74%)</title><rect x="1387.0" y="115" width="11.7" height="35.0" fill="rgb(238,146,36)" rx="2" ry="2" />
<text  x="1390.01" y="135.5" ></text>
</g>
<g >
<title>Acts::SeedFinder::createSeedsForGroup (15,586 samples, 95.17%)</title><rect x="81.0" y="187" width="1503.7" height="35.0" fill="rgb(241,164,40)" rx="2" ry="2" />
<text  x="84.01" y="207.5" >Acts::SeedFinder::createSeedsForGroup</text>
</g>
<g >
<title>all (16,377 samples, 100%)</title><rect x="10.0" y="259" width="1580.0" height="35.0" fill="rgb(255,230,55)" rx="2" ry="2" />
<text  x="13.00" y="279.5" ></text>
</g>
<g >
<title>std::__unguarded_partition (33 samples, 0.20%)</title><rect x="1365.7" y="43" width="3.2" height="35.0" fill="rgb(247,146,46)" rx="2" ry="2" />
<text  x="1368.69" y="63.5" ></text>
</g>
<g >
<title>__atan2f_finite (116 samples, 0.71%)</title><rect x="57.6" y="115" width="11.2" height="35.0" fill="rgb(240,151,38)" rx="2" ry="2" />
<text  x="60.56" y="135.5" ></text>
</g>
<g >
<title>__free (27 samples, 0.16%)</title><rect x="227.8" y="115" width="2.6" height="35.0" fill="rgb(246,135,46)" rx="2" ry="2" />
<text  x="230.84" y="135.5" ></text>
</g>
<g >
<title>std::vector::reserve (21 samples, 0.13%)</title><rect x="233.4" y="115" width="2.1" height="35.0" fill="rgb(240,146,38)" rx="2" ry="2" />
<text  x="236.44" y="135.5" ></text>
</g>
<g >
<title>std::__unguarded_linear_insert (507 samples, 3.10%)</title><rect x="1433.4" y="151" width="48.9" height="35.0" fill="rgb(236,146,34)" rx="2" ry="2" />
<text  x="1436.42" y="171.5" >std..</text>
</g>
<g >
<title>Acts::Delegate::connect()::{lambda(void (62 samples, 0.38%)</title><rect x="1295.2" y="115" width="5.9" height="35.0" fill="rgb(246,164,45)" rx="2" ry="2" />
<text  x="1298.17" y="135.5" ></text>
</g>
<g >
<title>std::atan2 (131 samples, 0.80%)</title><rect x="56.1" y="187" width="12.7" height="35.0" fill="rgb(254,146,54)" rx="2" ry="2" />
<text  x="59.12" y="207.5" ></text>
</g>
<g >
<title>Acts::Logger::doPrint (21 samples, 0.13%)</title><rect x="71.6" y="187" width="2.0" height="35.0" fill="rgb(238,164,36)" rx="2" ry="2" />
<text  x="74.55" y="207.5" ></text>
</g>
<g >
<title>__gnu_cxx::__normal_iterator::operator++ (87 samples, 0.53%)</title><rect x="1323.2" y="115" width="8.4" height="35.0" fill="rgb(234,132,32)" rx="2" ry="2" />
<text  x="1326.24" y="135.5" ></text>
</g>
<g >
<title>std::__invoke_impl (384 samples, 2.34%)</title><rect x="1272.9" y="151" width="37.0" height="35.0" fill="rgb(238,146,36)" rx="2" ry="2" />
<text  x="1275.88" y="171.5" >st..</text>
</g>
<g >
<title>__gnu_cxx::__normal_iterator::operator-- (129 samples, 0.79%)</title><rect x="1233.8" y="151" width="12.5" height="35.0" fill="rgb(241,132,39)" rx="2" ry="2" />
<text  x="1236.81" y="171.5" ></text>
</g>
<g >
<title>std::__unguarded_insertion_sort (101 samples, 0.62%)</title><rect x="1423.7" y="151" width="9.7" height="35.0" fill="rgb(238,146,36)" rx="2" ry="2" />
<text  x="1426.67" y="171.5" ></text>
</g>
<g >
<title>Acts::SeedFinder::filterCandidates() (49 samples, 0.30%)</title><rect x="215.7" y="151" width="4.7" height="35.0" fill="rgb(240,164,39)" rx="2" ry="2" />
<text  x="218.69" y="171.5" ></text>
</g>
<g >
<title>Acts::SeedFilter::filterSeeds_1SpFixed (75 samples, 0.46%)</title><rect x="73.8" y="187" width="7.2" height="35.0" fill="rgb(252,164,52)" rx="2" ry="2" />
<text  x="76.77" y="207.5" ></text>
</g>
<g >
<title>ActsExamples::SeedingAlgorithm::execute (15,735 samples, 96.08%)</title><rect x="69.2" y="223" width="1518.1" height="35.0" fill="rgb(240,164,38)" rx="2" ry="2" />
<text  x="72.24" y="243.5" >ActsExamples::SeedingAlgorithm::execute</text>
</g>
<g >
<title>std::__invoke_impl (68 samples, 0.42%)</title><rect x="1369.1" y="79" width="6.5" height="35.0" fill="rgb(238,146,36)" rx="2" ry="2" />
<text  x="1372.07" y="99.5" ></text>
</g>
<g >
<title>std::__fill_a1 (74 samples, 0.45%)</title><rect x="1253.0" y="151" width="7.1" height="35.0" fill="rgb(221,146,18)" rx="2" ry="2" />
<text  x="1256.01" y="171.5" ></text>
</g>
<g >
<title>Acts::SpacePointData::z (258 samples, 1.58%)</title><rect x="1191.1" y="151" width="24.9" height="35.0" fill="rgb(241,164,39)" rx="2" ry="2" />
<text  x="1194.07" y="171.5" >A..</text>
</g>
<g >
<title>std::__unguarded_linear_insert (49 samples, 0.30%)</title><rect x="30.5" y="187" width="4.7" height="35.0" fill="rgb(236,146,34)" rx="2" ry="2" />
<text  x="33.45" y="207.5" ></text>
</g>
<g >
<title>std::__copy_move_backward::__copy_move_b (49 samples, 0.30%)</title><rect x="1248.3" y="151" width="4.7" height="35.0" fill="rgb(229,146,27)" rx="2" ry="2" />
<text  x="1251.28" y="171.5" ></text>
</g>
<g >
<title>std::vector::operator[] (704 samples, 4.30%)</title><rect x="1508.1" y="151" width="67.9" height="35.0" fill="rgb(242,146,41)" rx="2" ry="2" />
<text  x="1511.09" y="171.5" >std::v..</text>
</g>
<g >
<title>std::__introsort_loop (150 samples, 0.92%)</title><rect x="1354.6" y="79" width="14.5" height="35.0" fill="rgb(248,146,47)" rx="2" ry="2" />
<text  x="1357.60" y="99.5" ></text>
</g>
<g >
<title>Acts::SeedFinder::filterCandidates (158 samples, 0.96%)</title><rect x="220.4" y="151" width="15.3" height="35.0" fill="rgb(238,164,36)" rx="2" ry="2" />
<text  x="223.42" y="171.5" ></text>
</g>
<g >
<title>__gnu_cxx::__normal_iterator::operator-- (50 samples, 0.31%)</title><rect x="1349.7" y="79" width="4.8" height="35.0" fill="rgb(241,132,39)" rx="2" ry="2" />
<text  x="1352.68" y="99.5" ></text>
</g>
<g >
<title>Acts::SpacePointData::x (26 samples, 0.16%)</title><rect x="1187.5" y="151" width="2.5" height="35.0" fill="rgb(244,164,43)" rx="2" ry="2" />
<text  x="1190.50" y="171.5" ></text>
</g>
<g >
<title>__gnu_cxx::__normal_iterator::operator++ (47 samples, 0.29%)</title><rect x="1345.1" y="79" width="4.6" height="35.0" fill="rgb(234,132,32)" rx="2" ry="2" />
<text  x="1348.14" y="99.5" ></text>
</g>
<g >
<title>std::__move_median_to_first (23 samples, 0.14%)</title><rect x="1398.7" y="115" width="2.2" height="35.0" fill="rgb(234,146,32)" rx="2" ry="2" />
<text  x="1401.69" y="135.5" ></text>
</g>
<g >
<title>std::__unguarded_partition (100 samples, 0.61%)</title><rect x="1377.4" y="79" width="9.6" height="35.0" fill="rgb(247,146,46)" rx="2" ry="2" />
<text  x="1380.37" y="99.5" ></text>
</g>
<g >
<title>operator (103 samples, 0.63%)</title><rect x="1310.2" y="115" width="10.0" height="35.0" fill="rgb(241,195,39)" rx="2" ry="2" />
<text  x="1313.22" y="135.5" ></text>
</g>
<g >
<title>__GI___libc_malloc (88 samples, 0.54%)</title><rect x="1311.7" y="79" width="8.5" height="35.0" fill="rgb(238,119,36)" rx="2" ry="2" />
<text  x="1314.66" y="99.5" ></text>
</g>
<g >
<title>std::__introsort_loop (41 samples, 0.25%)</title><rect x="21.5" y="187" width="3.9" height="35.0" fill="rgb(248,146,47)" rx="2" ry="2" />
<text  x="24.48" y="207.5" ></text>
</g>
<g >
<title>__gnu_cxx::__normal_iterator::operator-- (87 samples, 0.53%)</title><rect x="1331.6" y="115" width="8.4" height="35.0" fill="rgb(241,132,39)" rx="2" ry="2" />
<text  x="1334.64" y="135.5" ></text>
</g>
<g >
<title>Acts::SeedFinder::getCompatibleDoublets (151 samples, 0.92%)</title><rect x="1162.1" y="151" width="14.6" height="35.0" fill="rgb(236,164,34)" rx="2" ry="2" />
<text  x="1165.13" y="171.5" ></text>
</g>
<g >
<title>Acts::SeedFinder::getCompatibleDoublets (9,352 samples, 57.10%)</title><rect x="235.7" y="151" width="902.2" height="35.0" fill="rgb(236,164,34)" rx="2" ry="2" />
<text  x="238.66" y="171.5" >Acts::SeedFinder::getCompatibleDoublets</text>
</g>
<g >
<title>std::__insertion_sort (128 samples, 0.78%)</title><rect x="1260.5" y="151" width="12.4" height="35.0" fill="rgb(238,146,36)" rx="2" ry="2" />
<text  x="1263.53" y="171.5" ></text>
</g>
<g >
<title>std::sqrt (121 samples, 0.74%)</title><rect x="1482.8" y="151" width="11.7" height="35.0" fill="rgb(236,146,34)" rx="2" ry="2" />
<text  x="1485.81" y="171.5" ></text>
</g>
<g >
<title>atanf32 (99 samples, 0.60%)</title><rect x="59.2" y="79" width="9.6" height="35.0" fill="rgb(243,140,41)" rx="2" ry="2" />
<text  x="62.20" y="99.5" ></text>
</g>
<g >
<title>Acts::SeedFinder::filterCandidates (1,302 samples, 7.95%)</title><rect x="90.1" y="151" width="125.6" height="35.0" fill="rgb(238,164,36)" rx="2" ry="2" />
<text  x="93.08" y="171.5" >Acts::SeedFin..</text>
</g>
<g >
<title>std::vector::size (80 samples, 0.49%)</title><rect x="1577.0" y="151" width="7.7" height="35.0" fill="rgb(245,146,44)" rx="2" ry="2" />
<text  x="1579.98" y="171.5" ></text>
</g>
<g >
<title>Acts::SeedFilter::filterSeeds_2SpFixed (68 samples, 0.42%)</title><rect x="220.4" y="115" width="6.6" height="35.0" fill="rgb(252,164,52)" rx="2" ry="2" />
<text  x="223.42" y="135.5" ></text>
</g>
<g >
<title>Acts::SpacePointProxy::container (99 samples, 0.60%)</title><rect x="1216.9" y="151" width="9.6" height="35.0" fill="rgb(244,164,43)" rx="2" ry="2" />
<text  x="1219.92" y="171.5" ></text>
</g>
<g >
<title>std::__unguarded_partition (229 samples, 1.40%)</title><rect x="1400.9" y="115" width="22.1" height="35.0" fill="rgb(247,146,46)" rx="2" ry="2" />
<text  x="1403.91" y="135.5" ></text>
</g>
<g >
<title>Acts::SeedFinder::getCompatibleDoublets() (251 samples, 1.53%)</title><rect x="1137.9" y="151" width="24.2" height="35.0" fill="rgb(240,164,39)" rx="2" ry="2" />
<text  x="1140.91" y="171.5" ></text>
</g>
<g >
<title>Acts::LinCircle::LinCircle (36 samples, 0.22%)</title><rect x="86.6" y="151" width="3.5" height="35.0" fill="rgb(241,164,39)" rx="2" ry="2" />
<text  x="89.60" y="171.5" ></text>
</g>
<g >
<title>atan2f (129 samples, 0.79%)</title><rect x="56.3" y="151" width="12.5" height="35.0" fill="rgb(243,140,42)" rx="2" ry="2" />
<text  x="59.31" y="171.5" ></text>
</g>
<g >
<title>Acts::SpacePointContainer::SpacePointContainer (259 samples, 1.58%)</title><rect x="44.2" y="223" width="24.9" height="35.0" fill="rgb(244,164,43)" rx="2" ry="2" />
<text  x="47.15" y="243.5" >A..</text>
</g>
<g >
<title>Acts::LinCircle::LinCircle (83 samples, 0.51%)</title><rect x="1162.1" y="115" width="8.0" height="35.0" fill="rgb(241,164,39)" rx="2" ry="2" />
<text  x="1165.13" y="135.5" ></text>
</g>
<g >
<title>Acts::SpacePointData::varianceZ (23 samples, 0.14%)</title><rect x="1185.3" y="151" width="2.2" height="35.0" fill="rgb(250,164,50)" rx="2" ry="2" />
<text  x="1188.28" y="171.5" ></text>
</g>
<g >
<title>ActsExamples::SpacePointContainer::varianceR_impl (90 samples, 0.55%)</title><rect x="47.3" y="187" width="8.7" height="35.0" fill="rgb(238,164,36)" rx="2" ry="2" />
<text  x="50.34" y="207.5" ></text>
</g>
<g >
<title>__gnu_cxx::__normal_iterator::__normal_iterator (52 samples, 0.32%)</title><rect x="1228.0" y="151" width="5.0" height="35.0" fill="rgb(241,132,39)" rx="2" ry="2" />
<text  x="1231.02" y="171.5" ></text>
</g>
<g >
<title>ActsExamples::SeedingAlgorithm::itkFastTrackingCuts (91 samples, 0.56%)</title><rect x="1301.1" y="115" width="8.8" height="35.0" fill="rgb(233,164,31)" rx="2" ry="2" />
<text  x="1304.15" y="135.5" ></text>
</g>
<g >
<title>std::__sort (1,055 samples, 6.44%)</title><rect x="1321.9" y="151" width="101.8" height="35.0" fill="rgb(238,146,36)" rx="2" ry="2" />
<text  x="1324.89" y="171.5" >std::__sort</text>
</g>
<g >
<title>Acts::SpacePointData::radius (84 samples, 0.51%)</title><rect x="1176.7" y="151" width="8.1" height="35.0" fill="rgb(232,164,30)" rx="2" ry="2" />
<text  x="1179.69" y="171.5" ></text>
</g>
</g>
</svg>
