<?xml version="1.0" standalone="no"?>
<!DOCTYPE svg PUBLIC "-//W3C//DTD SVG 1.1//EN" "http://www.w3.org/Graphics/SVG/1.1/DTD/svg11.dtd">
<svg version="1.1" width="1600" height="368" onload="init(evt)" viewBox="0 0 1600 368" xmlns="http://www.w3.org/2000/svg" xmlns:xlink="http://www.w3.org/1999/xlink">
<!-- Flame graph stack visualization. See https://github.com/brendangregg/FlameGraph for latest version, and http://www.brendangregg.com/flamegraphs.html for examples. -->
<!-- NOTES:  -->
<defs>
	</defs>
<style type="text/css">
	text { font-family:Verdana; font-size:14px; fill:rgb(0,0,0); }
	#subtitle { text-anchor:middle; font-color:rgb(160,160,160); }
	#title { text-anchor:middle; font-size:19px}
	#unzoom { cursor:pointer; }
	#frames > *:hover { stroke:black; stroke-width:0.5; cursor:pointer; }
	.hide { display:none; }
	.parent { opacity:0.5; }
</style>
<rect x="0.0" y="0" width="1600.0" height="368.0" fill="white"  />
<g id="frames">
<g >
<title>Acts::SpacePointProxy2::assignSourceLinks (76 samples, 0.51%)</title><rect x="11.9" y="259" width="8.1" height="35.0" fill="rgb(236,164,34)" rx="2" ry="2" />
<text  x="14.92" y="279.5" ></text>
</g>
<g >
<title>Acts::detail::sp::ColumnHolder::emplace_back (29 samples, 0.20%)</title><rect x="71.0" y="187" width="3.1" height="35.0" fill="rgb(242,164,40)" rx="2" ry="2" />
<text  x="74.01" y="207.5" ></text>
</g>
<g >
<title>Acts::DoubletsForMiddleSp::sortByCotTheta() (113 samples, 0.76%)</title><rect x="1330.6" y="115" width="12.1" height="35.0" fill="rgb(244,164,43)" rx="2" ry="2" />
<text  x="1333.58" y="135.5" ></text>
</g>
<g >
<title>std::vector::push_back (25 samples, 0.17%)</title><rect x="1270.9" y="115" width="2.6" height="35.0" fill="rgb(242,146,40)" rx="2" ry="2" />
<text  x="1273.86" y="135.5" ></text>
</g>
<g >
<title>Acts::Axis::getBin (25 samples, 0.17%)</title><rect x="61.8" y="223" width="2.7" height="35.0" fill="rgb(244,164,43)" rx="2" ry="2" />
<text  x="64.82" y="243.5" ></text>
</g>
<g >
<title>std::vector::emplace_back (37 samples, 0.25%)</title><rect x="1266.9" y="115" width="4.0" height="35.0" fill="rgb(242,146,40)" rx="2" ry="2" />
<text  x="1269.91" y="135.5" ></text>
</g>
<g >
<title>std::__unguarded_partition (44 samples, 0.30%)</title><rect x="1365.1" y="43" width="4.7" height="35.0" fill="rgb(247,146,46)" rx="2" ry="2" />
<text  x="1368.09" y="63.5" ></text>
</g>
<g >
<title>Acts::DoubletsForMiddleSp::sortByCotTheta (53 samples, 0.36%)</title><rect x="347.4" y="151" width="5.7" height="35.0" fill="rgb(232,164,30)" rx="2" ry="2" />
<text  x="350.41" y="171.5" ></text>
</g>
<g >
<title>std::vector::push_back (29 samples, 0.20%)</title><rect x="332.3" y="115" width="3.1" height="35.0" fill="rgb(242,146,40)" rx="2" ry="2" />
<text  x="335.35" y="135.5" ></text>
</g>
<g >
<title>std::__do_uninit_copy (51 samples, 0.34%)</title><rect x="14.4" y="223" width="5.4" height="35.0" fill="rgb(248,146,48)" rx="2" ry="2" />
<text  x="17.38" y="243.5" ></text>
</g>
<g >
<title>std::__introsort_loop (120 samples, 0.81%)</title><rect x="1357.3" y="79" width="12.8" height="35.0" fill="rgb(248,146,47)" rx="2" ry="2" />
<text  x="1360.30" y="99.5" ></text>
</g>
<g >
<title>std::__unguarded_partition (124 samples, 0.84%)</title><rect x="1370.9" y="79" width="13.2" height="35.0" fill="rgb(247,146,46)" rx="2" ry="2" />
<text  x="1373.86" y="99.5" ></text>
</g>
<g >
<title>std::vector::operator[] (62 samples, 0.42%)</title><rect x="325.7" y="115" width="6.6" height="35.0" fill="rgb(242,146,41)" rx="2" ry="2" />
<text  x="328.72" y="135.5" ></text>
</g>
<g >
<title>ActsExamples::GridTripletSeedingAlgorithm::execute (14,611 samples, 98.80%)</title><rect x="20.0" y="259" width="1561.1" height="35.0" fill="rgb(240,164,38)" rx="2" ry="2" />
<text  x="23.04" y="279.5" >ActsExamples::GridTripletSeedingAlgorithm::execute</text>
</g>
<g >
<title>std::vector::emplace_back (57 samples, 0.39%)</title><rect x="1526.6" y="151" width="6.1" height="35.0" fill="rgb(242,146,40)" rx="2" ry="2" />
<text  x="1529.64" y="171.5" ></text>
</g>
<g >
<title>std::__invoke_impl (219 samples, 1.48%)</title><rect x="1303.7" y="151" width="23.4" height="35.0" fill="rgb(238,146,36)" rx="2" ry="2" />
<text  x="1306.66" y="171.5" ></text>
</g>
<g >
<title>Acts::SpacePointContainer2::varianceZ (22 samples, 0.15%)</title><rect x="202.5" y="115" width="2.4" height="35.0" fill="rgb(250,164,50)" rx="2" ry="2" />
<text  x="205.53" y="135.5" ></text>
</g>
<g >
<title>std::vector::emplace_back (73 samples, 0.49%)</title><rect x="317.9" y="115" width="7.8" height="35.0" fill="rgb(242,146,40)" rx="2" ry="2" />
<text  x="320.92" y="135.5" ></text>
</g>
<g >
<title>std::__introsort_loop (46 samples, 0.31%)</title><rect x="1567.3" y="223" width="5.0" height="35.0" fill="rgb(248,146,47)" rx="2" ry="2" />
<text  x="1570.35" y="243.5" ></text>
</g>
<g >
<title>Acts::Axis::wrapBin (33 samples, 0.22%)</title><rect x="64.7" y="223" width="3.5" height="35.0" fill="rgb(244,164,43)" rx="2" ry="2" />
<text  x="67.70" y="243.5" ></text>
</g>
<g >
<title>f64xsubf128 (135 samples, 0.91%)</title><rect x="1549.4" y="187" width="14.4" height="35.0" fill="rgb(237,150,35)" rx="2" ry="2" />
<text  x="1552.40" y="207.5" ></text>
</g>
<g >
<title>std::__copy_move_backward::__copy_move_b (67 samples, 0.45%)</title><rect x="1286.5" y="151" width="7.1" height="35.0" fill="rgb(229,146,27)" rx="2" ry="2" />
<text  x="1289.46" y="171.5" ></text>
</g>
<g >
<title>std::__detail::__extent_storage::_M_extent (44 samples, 0.30%)</title><rect x="306.9" y="115" width="4.7" height="35.0" fill="rgb(241,146,39)" rx="2" ry="2" />
<text  x="309.92" y="135.5" ></text>
</g>
<g >
<title>createPixelTripletTopCandidates (935 samples, 6.32%)</title><rect x="206.5" y="115" width="99.9" height="35.0" fill="rgb(238,121,36)" rx="2" ry="2" />
<text  x="209.48" y="135.5" >createPixe..</text>
</g>
<g >
<title>__GI___libc_malloc (20 samples, 0.14%)</title><rect x="1572.6" y="151" width="2.1" height="35.0" fill="rgb(238,119,36)" rx="2" ry="2" />
<text  x="1575.58" y="171.5" ></text>
</g>
<g >
<title>std::swap (36 samples, 0.24%)</title><rect x="1417.9" y="115" width="3.8" height="35.0" fill="rgb(233,146,31)" rx="2" ry="2" />
<text  x="1420.88" y="135.5" ></text>
</g>
<g >
<title>Acts::(anonymous (13,642 samples, 92.25%)</title><rect x="78.3" y="187" width="1457.5" height="35.0" fill="rgb(236,164,34)" rx="2" ry="2" />
<text  x="81.27" y="207.5" >Acts::(anonymous</text>
</g>
<g >
<title>operator() (110 samples, 0.74%)</title><rect x="1273.5" y="151" width="11.8" height="35.0" fill="rgb(241,195,40)" rx="2" ry="2" />
<text  x="1276.53" y="171.5" ></text>
</g>
<g >
<title>Acts::(anonymous (2,367 samples, 16.01%)</title><rect x="86.7" y="151" width="252.9" height="35.0" fill="rgb(236,164,34)" rx="2" ry="2" />
<text  x="89.71" y="171.5" >Acts::(anonymous</text>
</g>
<g >
<title>std::__insertion_sort (85 samples, 0.57%)</title><rect x="1294.6" y="151" width="9.1" height="35.0" fill="rgb(238,146,36)" rx="2" ry="2" />
<text  x="1297.58" y="171.5" ></text>
</g>
<g >
<title>Acts::DoubletsForMiddleSp::sortByCotTheta() (59 samples, 0.40%)</title><rect x="1348.5" y="79" width="6.3" height="35.0" fill="rgb(244,164,43)" rx="2" ry="2" />
<text  x="1351.53" y="99.5" ></text>
</g>
<g >
<title>operator (23 samples, 0.16%)</title><rect x="1572.3" y="187" width="2.4" height="35.0" fill="rgb(241,195,39)" rx="2" ry="2" />
<text  x="1575.26" y="207.5" ></text>
</g>
<g >
<title>Acts::DoubletsForMiddleSp::emplace_back (83 samples, 0.56%)</title><rect x="191.3" y="115" width="8.9" height="35.0" fill="rgb(242,164,40)" rx="2" ry="2" />
<text  x="194.31" y="135.5" ></text>
</g>
<g >
<title>Acts::DoubletSeedFinder::computeMiddleSpInfo (21 samples, 0.14%)</title><rect x="345.2" y="151" width="2.2" height="35.0" fill="rgb(248,164,47)" rx="2" ry="2" />
<text  x="348.17" y="171.5" ></text>
</g>
<g >
<title>Acts::DoubletsForMiddleSp::emplace_back (54 samples, 0.37%)</title><rect x="1261.1" y="115" width="5.8" height="35.0" fill="rgb(242,164,40)" rx="2" ry="2" />
<text  x="1264.14" y="135.5" ></text>
</g>
<g >
<title>Acts::DoubletsForMiddleSp::Proxy::u (60 samples, 0.41%)</title><rect x="184.6" y="115" width="6.4" height="35.0" fill="rgb(232,164,30)" rx="2" ry="2" />
<text  x="187.58" y="135.5" ></text>
</g>
<g >
<title>Acts::SpacePointContainer2::createSpacePoint (48 samples, 0.32%)</title><rect x="70.4" y="223" width="5.1" height="35.0" fill="rgb(238,164,36)" rx="2" ry="2" />
<text  x="73.37" y="243.5" ></text>
</g>
<g >
<title>__unguarded_linear_insert (25 samples, 0.17%)</title><rect x="1583.4" y="259" width="2.6" height="35.0" fill="rgb(236,125,34)" rx="2" ry="2" />
<text  x="1586.38" y="279.5" ></text>
</g>
<g >
<title>all (14,788 samples, 100%)</title><rect x="10.0" y="295" width="1580.0" height="35.0" fill="rgb(255,230,55)" rx="2" ry="2" />
<text  x="13.00" y="315.5" ></text>
</g>
<g >
<title>Acts::SpacePointContainer2::varianceR (21 samples, 0.14%)</title><rect x="200.3" y="115" width="2.2" height="35.0" fill="rgb(247,164,46)" rx="2" ry="2" />
<text  x="203.29" y="135.5" ></text>
</g>
<g >
<title>std::vector::push_back (32 samples, 0.22%)</title><rect x="1577.3" y="223" width="3.4" height="35.0" fill="rgb(242,146,40)" rx="2" ry="2" />
<text  x="1580.29" y="243.5" ></text>
</g>
<g >
<title>std::__move_median_to_first (20 samples, 0.14%)</title><rect x="1385.5" y="115" width="2.1" height="35.0" fill="rgb(234,146,32)" rx="2" ry="2" />
<text  x="1388.50" y="135.5" ></text>
</g>
<g >
<title>std::span::operator[] (48 samples, 0.32%)</title><rect x="1513.4" y="151" width="5.1" height="35.0" fill="rgb(242,146,41)" rx="2" ry="2" />
<text  x="1516.39" y="171.5" ></text>
</g>
<g >
<title>std::sqrt (20 samples, 0.14%)</title><rect x="1522.7" y="151" width="2.1" height="35.0" fill="rgb(236,146,34)" rx="2" ry="2" />
<text  x="1525.69" y="171.5" ></text>
</g>
<g >
<title>std::__new_allocator::allocate (23 samples, 0.16%)</title><rect x="1572.3" y="223" width="2.4" height="35.0" fill="rgb(245,146,45)" rx="2" ry="2" />
<text  x="1575.26" y="243.5" ></text>
</g>
<g >
<title>__unguarded_partition (19 samples, 0.13%)</title><rect x="1546.1" y="223" width="2.0" height="35.0" fill="rgb(247,125,46)" rx="2" ry="2" />
<text  x="1549.09" y="243.5" ></text>
</g>
<g >
<title>Acts::detail::grid_helper_impl::getGlobalBin (21 samples, 0.14%)</title><rect x="1540.6" y="223" width="2.3" height="35.0" fill="rgb(244,164,43)" rx="2" ry="2" />
<text  x="1543.64" y="243.5" ></text>
</g>
<g >
<title>std::__introsort_loop (380 samples, 2.57%)</title><rect x="1344.9" y="115" width="40.6" height="35.0" fill="rgb(248,146,47)" rx="2" ry="2" />
<text  x="1347.90" y="135.5" >st..</text>
</g>
<g >
<title>Acts::Delegate::connect()::{lambda(void (134 samples, 0.91%)</title><rect x="1308.9" y="115" width="14.3" height="35.0" fill="rgb(246,164,45)" rx="2" ry="2" />
<text  x="1311.90" y="135.5" ></text>
</g>
<g >
<title>__memmove_avx_unaligned (22 samples, 0.15%)</title><rect x="1291.3" y="115" width="2.3" height="35.0" fill="rgb(251,151,51)" rx="2" ry="2" />
<text  x="1294.27" y="135.5" ></text>
</g>
<g >
<title>Acts::BroadTripletSeedFilter::filterTripletTopCandidates (184 samples, 1.24%)</title><rect x="162.4" y="115" width="19.6" height="35.0" fill="rgb(238,164,36)" rx="2" ry="2" />
<text  x="165.36" y="135.5" ></text>
</g>
<g >
<title>std::vector::size (21 samples, 0.14%)</title><rect x="337.4" y="115" width="2.2" height="35.0" fill="rgb(245,146,44)" rx="2" ry="2" />
<text  x="340.37" y="135.5" ></text>
</g>
<g >
<title>std::vector::capacity (21 samples, 0.14%)</title><rect x="315.7" y="115" width="2.2" height="35.0" fill="rgb(240,146,38)" rx="2" ry="2" />
<text  x="318.68" y="135.5" ></text>
</g>
<g >
<title>atan2f32x (147 samples, 0.99%)</title><rect x="1548.1" y="223" width="15.7" height="35.0" fill="rgb(246,140,45)" rx="2" ry="2" />
<text  x="1551.12" y="243.5" ></text>
</g>
<g >
<title>std::__introsort_loop (19 samples, 0.13%)</title><rect x="1570.1" y="187" width="2.1" height="35.0" fill="rgb(248,146,47)" rx="2" ry="2" />
<text  x="1573.13" y="207.5" ></text>
</g>
<g >
<title>std::span::subspan (39 samples, 0.26%)</title><rect x="1518.5" y="151" width="4.2" height="35.0" fill="rgb(242,146,41)" rx="2" ry="2" />
<text  x="1521.52" y="171.5" ></text>
</g>
<g >
<title>std::__unguarded_linear_insert (818 samples, 5.53%)</title><rect x="1423.1" y="151" width="87.4" height="35.0" fill="rgb(236,146,34)" rx="2" ry="2" />
<text  x="1426.11" y="171.5" >std::__u..</text>
</g>
<g >
<title>std::construct_at (24 samples, 0.16%)</title><rect x="1510.5" y="151" width="2.6" height="35.0" fill="rgb(226,146,24)" rx="2" ry="2" />
<text  x="1513.51" y="171.5" ></text>
</g>
<g >
<title>std::__detail::_Hash_node::_M_next (24 samples, 0.16%)</title><rect x="1564.8" y="223" width="2.5" height="35.0" fill="rgb(230,146,27)" rx="2" ry="2" />
<text  x="1567.78" y="243.5" ></text>
</g>
<g >
<title>std::__introsort_loop (34 samples, 0.23%)</title><rect x="1360.6" y="43" width="3.6" height="35.0" fill="rgb(248,146,47)" rx="2" ry="2" />
<text  x="1363.61" y="63.5" ></text>
</g>
<g >
<title>createDoubletsImpl (8,520 samples, 57.61%)</title><rect x="363.2" y="151" width="910.3" height="35.0" fill="rgb(238,121,36)" rx="2" ry="2" />
<text  x="366.22" y="171.5" >createDoubletsImpl</text>
</g>
<g >
<title>Acts::BroadTripletSeedFilter::sufficientTopDoublets (19 samples, 0.13%)</title><rect x="343.1" y="151" width="2.1" height="35.0" fill="rgb(236,164,34)" rx="2" ry="2" />
<text  x="346.14" y="171.5" ></text>
</g>
<g >
<title>std::vector::size (21 samples, 0.14%)</title><rect x="1533.6" y="151" width="2.2" height="35.0" fill="rgb(245,146,44)" rx="2" ry="2" />
<text  x="1536.59" y="171.5" ></text>
</g>
<g >
<title>std::__unguarded_partition (283 samples, 1.91%)</title><rect x="1387.6" y="115" width="30.3" height="35.0" fill="rgb(247,146,46)" rx="2" ry="2" />
<text  x="1390.64" y="135.5" >s..</text>
</g>
<g >
<title>std::__sort (868 samples, 5.87%)</title><rect x="1329.0" y="151" width="92.7" height="35.0" fill="rgb(238,146,36)" rx="2" ry="2" />
<text  x="1331.98" y="171.5" >std::__sort</text>
</g>
<g >
<title>itkFastTrackingCuts (36 samples, 0.24%)</title><rect x="1323.2" y="115" width="3.9" height="35.0" fill="rgb(233,124,31)" rx="2" ry="2" />
<text  x="1326.21" y="135.5" ></text>
</g>
<g >
<title>Acts::SpacePointContainer2::zip (30 samples, 0.20%)</title><rect x="356.1" y="151" width="3.2" height="35.0" fill="rgb(243,164,42)" rx="2" ry="2" />
<text  x="359.07" y="171.5" ></text>
</g>
<g >
<title>Acts::BroadTripletSeedFilter::filterTripletsMiddleFixed (27 samples, 0.18%)</title><rect x="340.0" y="151" width="2.9" height="35.0" fill="rgb(252,164,52)" rx="2" ry="2" />
<text  x="343.04" y="171.5" ></text>
</g>
<g >
<title>Acts::TripletSeeder::createSeedsFromGroups (13,711 samples, 92.72%)</title><rect x="75.5" y="223" width="1464.9" height="35.0" fill="rgb(237,164,36)" rx="2" ry="2" />
<text  x="78.49" y="243.5" >Acts::TripletSeeder::createSeedsFromGroups</text>
</g>
<g >
<title>Acts::(anonymous (75 samples, 0.51%)</title><rect x="154.3" y="115" width="8.1" height="35.0" fill="rgb(236,164,34)" rx="2" ry="2" />
<text  x="157.35" y="135.5" ></text>
</g>
</g>
</svg>
