<?xml version="1.0" standalone="no"?>
<!DOCTYPE svg PUBLIC "-//W3C//DTD SVG 1.1//EN" "http://www.w3.org/Graphics/SVG/1.1/DTD/svg11.dtd">
<svg version="1.1" width="1600" height="332" onload="init(evt)" viewBox="0 0 1600 332" xmlns="http://www.w3.org/2000/svg" xmlns:xlink="http://www.w3.org/1999/xlink">
<!-- Flame graph stack visualization. See https://github.com/brendangregg/FlameGraph for latest version, and http://www.brendangregg.com/flamegraphs.html for examples. -->
<!-- NOTES:  -->
<defs>
	</defs>
<style type="text/css">
	text { font-family:Verdana; font-size:14px; fill:rgb(0,0,0); }
	#subtitle { text-anchor:middle; font-color:rgb(160,160,160); }
	#title { text-anchor:middle; font-size:19px}
	#unzoom { cursor:pointer; }
	#frames > *:hover { stroke:black; stroke-width:0.5; cursor:pointer; }
	.hide { display:none; }
	.parent { opacity:0.5; }
</style>
<rect x="0.0" y="0" width="1600.0" height="332.0" fill="white"  />
<g id="frames">
<g >
<title>std::__new_allocator::deallocate (12 samples, 0.24%)</title><rect x="1326.5" y="151" width="3.8" height="35.0" fill="rgb(245,146,45)" rx="2" ry="2" />
<text  x="1329.45" y="171.5" ></text>
</g>
<g >
<title>std::__unguarded_partition (13 samples, 0.26%)</title><rect x="48.9" y="187" width="4.2" height="35.0" fill="rgb(247,146,46)" rx="2" ry="2" />
<text  x="51.89" y="207.5" ></text>
</g>
<g >
<title>__atan2f_finite (34 samples, 0.69%)</title><rect x="83.9" y="115" width="10.9" height="35.0" fill="rgb(240,151,38)" rx="2" ry="2" />
<text  x="86.92" y="135.5" ></text>
</g>
<g >
<title>std::vector::size (8 samples, 0.16%)</title><rect x="61.7" y="187" width="2.6" height="35.0" fill="rgb(245,146,44)" rx="2" ry="2" />
<text  x="64.75" y="207.5" ></text>
</g>
<g >
<title>std::__unguarded_partition (8 samples, 0.16%)</title><rect x="33.1" y="151" width="2.6" height="35.0" fill="rgb(247,146,46)" rx="2" ry="2" />
<text  x="36.14" y="171.5" ></text>
</g>
<g >
<title>operator (57 samples, 1.16%)</title><rect x="1308.1" y="115" width="18.4" height="35.0" fill="rgb(241,195,39)" rx="2" ry="2" />
<text  x="1311.13" y="135.5" ></text>
</g>
<g >
<title>Acts::SpacePointContainer::SpacePointContainer (101 samples, 2.05%)</title><rect x="64.3" y="223" width="32.5" height="35.0" fill="rgb(244,164,43)" rx="2" ry="2" />
<text  x="67.32" y="243.5" >A..</text>
</g>
<g >
<title>_int_free (15 samples, 0.31%)</title><rect x="399.5" y="79" width="4.9" height="35.0" fill="rgb(246,153,46)" rx="2" ry="2" />
<text  x="402.54" y="99.5" ></text>
</g>
<g >
<title>std::__introsort_loop (76 samples, 1.55%)</title><rect x="1349.6" y="115" width="24.4" height="35.0" fill="rgb(248,146,47)" rx="2" ry="2" />
<text  x="1352.59" y="135.5" ></text>
</g>
<g >
<title>std::vector::emplace_back (34 samples, 0.69%)</title><rect x="1495.8" y="151" width="11.0" height="35.0" fill="rgb(242,146,40)" rx="2" ry="2" />
<text  x="1498.83" y="171.5" ></text>
</g>
<g >
<title>Acts::LinCircle::LinCircle (64 samples, 1.30%)</title><rect x="120.9" y="151" width="20.6" height="35.0" fill="rgb(241,164,39)" rx="2" ry="2" />
<text  x="123.88" y="171.5" ></text>
</g>
<g >
<title>std::vector::emplace_back (10 samples, 0.20%)</title><rect x="57.2" y="187" width="3.3" height="35.0" fill="rgb(242,146,40)" rx="2" ry="2" />
<text  x="60.25" y="207.5" ></text>
</g>
<g >
<title>ActsExamples::SeedingAlgorithm::execute (4,636 samples, 94.30%)</title><rect x="97.1" y="223" width="1490.0" height="35.0" fill="rgb(240,164,38)" rx="2" ry="2" />
<text  x="100.10" y="243.5" >ActsExamples::SeedingAlgorithm::execute</text>
</g>
<g >
<title>std::__insertion_sort (64 samples, 1.30%)</title><rect x="1266.7" y="151" width="20.5" height="35.0" fill="rgb(238,146,36)" rx="2" ry="2" />
<text  x="1269.67" y="171.5" ></text>
</g>
<g >
<title>std::vector::_M_range_check (10 samples, 0.20%)</title><rect x="1490.0" y="151" width="3.3" height="35.0" fill="rgb(239,146,37)" rx="2" ry="2" />
<text  x="1493.04" y="171.5" ></text>
</g>
<g >
<title>__free (9 samples, 0.18%)</title><rect x="1214.0" y="151" width="2.9" height="35.0" fill="rgb(246,135,46)" rx="2" ry="2" />
<text  x="1216.96" y="171.5" ></text>
</g>
<g >
<title>Acts::SeedFinder::getCompatibleDoublets (2,238 samples, 45.52%)</title><rect x="409.8" y="151" width="719.3" height="35.0" fill="rgb(236,164,34)" rx="2" ry="2" />
<text  x="412.82" y="171.5" >Acts::SeedFinder::getCompatibleDoublets</text>
</g>
<g >
<title>__gnu_cxx::__normal_iterator::__normal_iterator (10 samples, 0.20%)</title><rect x="1216.9" y="151" width="3.2" height="35.0" fill="rgb(241,132,39)" rx="2" ry="2" />
<text  x="1219.86" y="171.5" ></text>
</g>
<g >
<title>_int_free (9 samples, 0.18%)</title><rect x="392.8" y="43" width="2.9" height="35.0" fill="rgb(246,153,46)" rx="2" ry="2" />
<text  x="395.79" y="63.5" ></text>
</g>
<g >
<title>Acts::SeedFilter::filterSeeds_2SpFixed (26 samples, 0.53%)</title><rect x="388.3" y="115" width="8.3" height="35.0" fill="rgb(252,164,52)" rx="2" ry="2" />
<text  x="391.29" y="135.5" ></text>
</g>
<g >
<title>std::__fill_a1 (37 samples, 0.75%)</title><rect x="1254.8" y="151" width="11.9" height="35.0" fill="rgb(221,146,18)" rx="2" ry="2" />
<text  x="1257.78" y="171.5" ></text>
</g>
<g >
<title>Acts::SpacePointProxy::container (25 samples, 0.51%)</title><rect x="1205.6" y="151" width="8.0" height="35.0" fill="rgb(244,164,43)" rx="2" ry="2" />
<text  x="1208.61" y="171.5" ></text>
</g>
<g >
<title>all (4,916 samples, 100%)</title><rect x="10.0" y="259" width="1580.0" height="35.0" fill="rgb(255,230,55)" rx="2" ry="2" />
<text  x="13.00" y="279.5" ></text>
</g>
<g >
<title>__memcpy_avx_unaligned_erms (9 samples, 0.18%)</title><rect x="1250.0" y="115" width="2.9" height="35.0" fill="rgb(231,151,28)" rx="2" ry="2" />
<text  x="1252.96" y="135.5" ></text>
</g>
<g >
<title>atanf32 (25 samples, 0.51%)</title><rect x="86.8" y="79" width="8.0" height="35.0" fill="rgb(243,140,41)" rx="2" ry="2" />
<text  x="89.81" y="99.5" ></text>
</g>
<g >
<title>std::atan2 (39 samples, 0.79%)</title><rect x="82.3" y="187" width="12.5" height="35.0" fill="rgb(254,146,54)" rx="2" ry="2" />
<text  x="85.31" y="207.5" ></text>
</g>
<g >
<title>Acts::SeedFinder::filterCandidates() (23 samples, 0.47%)</title><rect x="380.9" y="151" width="7.4" height="35.0" fill="rgb(240,164,39)" rx="2" ry="2" />
<text  x="383.90" y="171.5" ></text>
</g>
<g >
<title>std::__new_allocator::allocate (58 samples, 1.18%)</title><rect x="1307.8" y="151" width="18.7" height="35.0" fill="rgb(245,146,45)" rx="2" ry="2" />
<text  x="1310.81" y="171.5" ></text>
</g>
<g >
<title>__gnu_cxx::__normal_iterator::operator++ (14 samples, 0.28%)</title><rect x="1220.4" y="151" width="4.5" height="35.0" fill="rgb(234,132,32)" rx="2" ry="2" />
<text  x="1223.39" y="171.5" ></text>
</g>
<g >
<title>Acts::CylindricalSpacePointGridCreator::fillGrid (167 samples, 3.40%)</title><rect x="10.6" y="223" width="53.7" height="35.0" fill="rgb(244,164,43)" rx="2" ry="2" />
<text  x="13.64" y="243.5" >Acts..</text>
</g>
<g >
<title>std::vector::size (33 samples, 0.67%)</title><rect x="1568.5" y="151" width="10.6" height="35.0" fill="rgb(245,146,44)" rx="2" ry="2" />
<text  x="1571.47" y="171.5" ></text>
</g>
<g >
<title>std::sqrt (10 samples, 0.20%)</title><rect x="1483.6" y="151" width="3.2" height="35.0" fill="rgb(236,146,34)" rx="2" ry="2" />
<text  x="1486.62" y="171.5" ></text>
</g>
<g >
<title>ActsExamples::SpacePointContainer::varianceR_impl (41 samples, 0.83%)</title><rect x="69.1" y="187" width="13.2" height="35.0" fill="rgb(238,164,36)" rx="2" ry="2" />
<text  x="72.14" y="207.5" ></text>
</g>
<g >
<title>Acts::SpacePointData::x (8 samples, 0.16%)</title><rect x="1172.8" y="151" width="2.6" height="35.0" fill="rgb(244,164,43)" rx="2" ry="2" />
<text  x="1175.82" y="171.5" ></text>
</g>
<g >
<title>__memset_avx2_unaligned (16 samples, 0.33%)</title><rect x="1255.1" y="115" width="5.1" height="35.0" fill="rgb(251,151,51)" rx="2" ry="2" />
<text  x="1258.10" y="135.5" ></text>
</g>
<g >
<title>std::__unguarded_linear_insert (206 samples, 4.19%)</title><rect x="1416.8" y="151" width="66.2" height="35.0" fill="rgb(236,146,34)" rx="2" ry="2" />
<text  x="1419.77" y="171.5" >std::_..</text>
</g>
<g >
<title>std::__copy_move_backward::__copy_move_b (34 samples, 0.69%)</title><rect x="1243.9" y="151" width="10.9" height="35.0" fill="rgb(229,146,27)" rx="2" ry="2" />
<text  x="1246.85" y="171.5" ></text>
</g>
<g >
<title>std::__upper_bound (7 samples, 0.14%)</title><rect x="53.1" y="187" width="2.2" height="35.0" fill="rgb(248,146,48)" rx="2" ry="2" />
<text  x="56.07" y="207.5" ></text>
</g>
<g >
<title>__memset_avx2_unaligned_erms (20 samples, 0.41%)</title><rect x="1260.2" y="115" width="6.5" height="35.0" fill="rgb(231,151,28)" rx="2" ry="2" />
<text  x="1263.24" y="135.5" ></text>
</g>
<g >
<title>std::vector::_M_erase_at_end (8 samples, 0.16%)</title><rect x="1487.5" y="151" width="2.5" height="35.0" fill="rgb(251,146,51)" rx="2" ry="2" />
<text  x="1490.47" y="171.5" ></text>
</g>
<g >
<title>std::__move_median_to_first (10 samples, 0.20%)</title><rect x="1385.9" y="115" width="3.2" height="35.0" fill="rgb(234,146,32)" rx="2" ry="2" />
<text  x="1388.91" y="135.5" ></text>
</g>
<g >
<title>std::__unguarded_partition (19 samples, 0.39%)</title><rect x="1367.3" y="79" width="6.1" height="35.0" fill="rgb(247,146,46)" rx="2" ry="2" />
<text  x="1370.27" y="99.5" ></text>
</g>
<g >
<title>Acts::SpacePointData::z (71 samples, 1.44%)</title><rect x="1181.2" y="151" width="22.8" height="35.0" fill="rgb(241,164,39)" rx="2" ry="2" />
<text  x="1184.18" y="171.5" ></text>
</g>
<g >
<title>std::__unguarded_insertion_sort (24 samples, 0.49%)</title><rect x="1409.1" y="151" width="7.7" height="35.0" fill="rgb(238,146,36)" rx="2" ry="2" />
<text  x="1412.05" y="171.5" ></text>
</g>
<g >
<title>Acts::Axis::getBin (15 samples, 0.31%)</title><rect x="10.6" y="187" width="4.9" height="35.0" fill="rgb(244,164,43)" rx="2" ry="2" />
<text  x="13.64" y="207.5" ></text>
</g>
<g >
<title>Acts::SpacePointData::y (18 samples, 0.37%)</title><rect x="1175.4" y="151" width="5.8" height="35.0" fill="rgb(242,164,41)" rx="2" ry="2" />
<text  x="1178.39" y="171.5" ></text>
</g>
<g >
<title>std::__invoke_impl (19 samples, 0.39%)</title><rect x="1359.6" y="79" width="6.1" height="35.0" fill="rgb(238,146,36)" rx="2" ry="2" />
<text  x="1362.56" y="99.5" ></text>
</g>
<g >
<title>atan2f (37 samples, 0.75%)</title><rect x="83.0" y="151" width="11.8" height="35.0" fill="rgb(243,140,42)" rx="2" ry="2" />
<text  x="85.96" y="171.5" ></text>
</g>
<g >
<title>std::__invoke_impl (37 samples, 0.75%)</title><rect x="1374.0" y="115" width="11.9" height="35.0" fill="rgb(238,146,36)" rx="2" ry="2" />
<text  x="1377.02" y="135.5" ></text>
</g>
<g >
<title>std::vector::operator[] (184 samples, 3.74%)</title><rect x="1506.8" y="151" width="59.1" height="35.0" fill="rgb(242,146,41)" rx="2" ry="2" />
<text  x="1509.76" y="171.5" >std::..</text>
</g>
<g >
<title>Acts::SeedFinder::filterCandidates (67 samples, 1.36%)</title><rect x="388.3" y="151" width="21.5" height="35.0" fill="rgb(238,164,36)" rx="2" ry="2" />
<text  x="391.29" y="171.5" ></text>
</g>
<g >
<title>Acts::Neighbour::Neighbour (11 samples, 0.22%)</title><rect x="1581.0" y="151" width="3.5" height="35.0" fill="rgb(238,164,36)" rx="2" ry="2" />
<text  x="1584.00" y="171.5" ></text>
</g>
<g >
<title>std::__introsort_loop (11 samples, 0.22%)</title><rect x="1356.0" y="79" width="3.6" height="35.0" fill="rgb(248,146,47)" rx="2" ry="2" />
<text  x="1359.02" y="99.5" ></text>
</g>
<g >
<title>Acts::SeedFinder::createSeedsForGroup (4,561 samples, 92.78%)</title><rect x="113.2" y="187" width="1465.9" height="35.0" fill="rgb(241,164,40)" rx="2" ry="2" />
<text  x="116.17" y="207.5" >Acts::SeedFinder::createSeedsForGroup</text>
</g>
<g >
<title>std::__introsort_loop (20 samples, 0.41%)</title><rect x="30.2" y="187" width="6.5" height="35.0" fill="rgb(248,146,47)" rx="2" ry="2" />
<text  x="33.25" y="207.5" ></text>
</g>
<g >
<title>__gnu_cxx::__normal_iterator::operator-- (27 samples, 0.55%)</title><rect x="1339.3" y="115" width="8.7" height="35.0" fill="rgb(241,132,39)" rx="2" ry="2" />
<text  x="1342.31" y="135.5" ></text>
</g>
<g >
<title>Acts::SeedFinder::getCompatibleDoublets() (68 samples, 1.38%)</title><rect x="1129.1" y="151" width="21.9" height="35.0" fill="rgb(240,164,39)" rx="2" ry="2" />
<text  x="1132.11" y="171.5" ></text>
</g>
<g >
<title>std::__unguarded_partition (57 samples, 1.16%)</title><rect x="1389.1" y="115" width="18.3" height="35.0" fill="rgb(247,146,46)" rx="2" ry="2" />
<text  x="1392.13" y="135.5" ></text>
</g>
<g >
<title>__free (7 samples, 0.14%)</title><rect x="1327.1" y="115" width="2.2" height="35.0" fill="rgb(246,135,46)" rx="2" ry="2" />
<text  x="1330.10" y="135.5" ></text>
</g>
<g >
<title>std::__unguarded_linear_insert (22 samples, 0.45%)</title><rect x="41.8" y="187" width="7.1" height="35.0" fill="rgb(236,146,34)" rx="2" ry="2" />
<text  x="44.82" y="207.5" ></text>
</g>
<g >
<title>__free (10 samples, 0.20%)</title><rect x="392.5" y="79" width="3.2" height="35.0" fill="rgb(246,135,46)" rx="2" ry="2" />
<text  x="395.47" y="99.5" ></text>
</g>
<g >
<title>Acts::SeedFilter::filterSeeds_1SpFixed (8 samples, 0.16%)</title><rect x="107.4" y="151" width="2.6" height="35.0" fill="rgb(252,164,52)" rx="2" ry="2" />
<text  x="110.38" y="171.5" ></text>
</g>
<g >
<title>std::vector::clear (7 samples, 0.14%)</title><rect x="1493.6" y="151" width="2.2" height="35.0" fill="rgb(234,146,32)" rx="2" ry="2" />
<text  x="1496.58" y="171.5" ></text>
</g>
<g >
<title>__gnu_cxx::__normal_iterator::operator++ (22 samples, 0.45%)</title><rect x="1332.2" y="115" width="7.1" height="35.0" fill="rgb(234,132,32)" rx="2" ry="2" />
<text  x="1335.24" y="135.5" ></text>
</g>
<g >
<title>std::__sort (245 samples, 4.98%)</title><rect x="1330.3" y="151" width="78.8" height="35.0" fill="rgb(238,146,36)" rx="2" ry="2" />
<text  x="1333.31" y="171.5" >std::__..</text>
</g>
<g >
<title>Acts::SpacePointData::radius (28 samples, 0.57%)</title><rect x="1152.3" y="151" width="9.0" height="35.0" fill="rgb(232,164,30)" rx="2" ry="2" />
<text  x="1155.25" y="171.5" ></text>
</g>
<g >
<title>boost::container::allocator_traits::priv_construct (16 samples, 0.33%)</title><rect x="1581.0" y="187" width="5.1" height="35.0" fill="rgb(238,151,36)" rx="2" ry="2" />
<text  x="1584.00" y="207.5" ></text>
</g>
<g >
<title>Acts::SpacePointData::varianceZ (31 samples, 0.63%)</title><rect x="1162.9" y="151" width="9.9" height="35.0" fill="rgb(250,164,50)" rx="2" ry="2" />
<text  x="1165.86" y="171.5" ></text>
</g>
<g >
<title>__GI___libc_malloc (49 samples, 1.00%)</title><rect x="1310.7" y="79" width="15.8" height="35.0" fill="rgb(238,119,36)" rx="2" ry="2" />
<text  x="1313.70" y="99.5" ></text>
</g>
<g >
<title>Acts::SeedFinder::filterCandidates (745 samples, 15.15%)</title><rect x="141.5" y="151" width="239.4" height="35.0" fill="rgb(238,164,36)" rx="2" ry="2" />
<text  x="144.45" y="171.5" >Acts::SeedFinder::filterCa..</text>
</g>
<g >
<title>Acts::Axis::wrapBin (24 samples, 0.49%)</title><rect x="15.5" y="187" width="7.7" height="35.0" fill="rgb(244,164,43)" rx="2" ry="2" />
<text  x="18.46" y="207.5" ></text>
</g>
<g >
<title>__gnu_cxx::__normal_iterator::operator-- (48 samples, 0.98%)</title><rect x="1224.9" y="151" width="15.4" height="35.0" fill="rgb(241,132,39)" rx="2" ry="2" />
<text  x="1227.89" y="171.5" ></text>
</g>
<g >
<title>Acts::SeedFilter::filterSeeds_1SpFixed (36 samples, 0.73%)</title><rect x="101.6" y="187" width="11.6" height="35.0" fill="rgb(252,164,52)" rx="2" ry="2" />
<text  x="104.60" y="207.5" ></text>
</g>
<g >
<title>std::__invoke_impl (62 samples, 1.26%)</title><rect x="1287.2" y="151" width="20.0" height="35.0" fill="rgb(238,146,36)" rx="2" ry="2" />
<text  x="1290.24" y="171.5" ></text>
</g>
<g >
<title>__free (21 samples, 0.43%)</title><rect x="397.6" y="115" width="6.8" height="35.0" fill="rgb(246,135,46)" rx="2" ry="2" />
<text  x="400.61" y="135.5" ></text>
</g>
<g >
<title>Acts::Logger::doPrint (12 samples, 0.24%)</title><rect x="103.5" y="151" width="3.9" height="35.0" fill="rgb(238,164,36)" rx="2" ry="2" />
<text  x="106.53" y="171.5" ></text>
</g>
</g>
</svg>
